<svg width="122" height="201" viewBox="0 0 122 201" fill="none" xmlns="http://www.w3.org/2000/svg">
<path fill-rule="evenodd" clip-rule="evenodd" d="M104.681 183.584H96.5773V191.546H104.681V183.584Z" fill="#F77F89"/>
<path fill-rule="evenodd" clip-rule="evenodd" d="M74.2323 183.354H66.1258V191.313H74.2323V183.354Z" fill="#F77F89"/>
<path fill-rule="evenodd" clip-rule="evenodd" d="M119.054 29.3876L113.67 28.2593C113.299 28.1803 112.913 28.2512 112.594 28.4565C112.276 28.6618 112.052 28.9848 111.972 29.3547L109.756 39.6248C109.717 39.8067 109.715 39.9943 109.75 40.177C109.784 40.3597 109.854 40.5338 109.956 40.6893C110.058 40.8448 110.189 40.9786 110.343 41.0831C110.497 41.1876 110.669 41.2607 110.851 41.2982L116.23 42.4293C116.601 42.5082 116.987 42.4373 117.305 42.232C117.623 42.0267 117.847 41.7037 117.928 41.3338L120.155 31.0637C120.193 30.8813 120.195 30.6931 120.161 30.51C120.126 30.3268 120.055 30.1523 119.953 29.9965C119.851 29.8407 119.719 29.7067 119.564 29.6022C119.41 29.4977 119.236 29.4248 119.054 29.3876Z" fill="#9B9B9B"/>
<path fill-rule="evenodd" clip-rule="evenodd" d="M117.309 45.9347C117.972 44.8858 122.965 35.1388 121.417 34.3117C119.87 33.4846 119.007 34.3473 118.629 35.2429C117.808 34.3692 116.112 33.3258 115.411 34.0871C114.59 34.9608 115.272 36.3575 115.888 36.9025C115.184 36.656 114.535 36.5109 113.971 37.2996C113.25 38.2801 114.176 41.0872 114.669 41.509L112.067 43.9738C112.067 43.9738 116.649 46.9727 117.309 45.9347Z" fill="#F77F89"/>
<path fill-rule="evenodd" clip-rule="evenodd" d="M72.9013 106.008C72.9013 101.747 68.6454 98.2931 63.3926 98.2931C58.1398 98.2931 53.8866 101.747 53.8866 106.008C53.8866 110.269 58.1425 113.723 63.3926 113.723C68.6427 113.723 72.9013 110.269 72.9013 106.008Z" fill="#BF9111"/>
<path fill-rule="evenodd" clip-rule="evenodd" d="M81.0791 18.0001C73.7585 18.0001 70.1243 24.6606 69.7737 26.9748C69.4232 29.289 69.8751 34.1639 69.226 36.1166C67.4239 41.4296 60.862 44.3025 60.862 49.6786C60.862 62.1177 74.5555 58.5163 78.721 58.3575C82.8866 58.1987 93.8523 57.8481 93.8523 50.3852C93.8523 47.4164 91.8339 47.4164 91.7983 43.5549C91.7682 40.2903 93.5922 39.3674 93.5922 31.5457C93.573 28.3469 89.2321 17.9618 81.0791 18.0001Z" fill="black"/>
<path fill-rule="evenodd" clip-rule="evenodd" d="M91.3464 82.71C91.5436 80.5848 92.8253 59.1572 86.3784 50.3934C86.5926 49.6838 86.751 48.9586 86.8522 48.2244C89.2157 49.9278 98.0535 58.9053 99.1764 60.3979C100.198 59.0997 111.205 43.6754 111.752 43.4919C112.3 43.3084 117.679 45.8061 117.797 46.3785C117.914 46.9509 104.695 72.4426 101.365 73.5162C99.9678 73.9654 97.996 72.5878 97.3798 72.3879C97.2949 73.7572 109.627 109.634 97.8563 109.908C90.8589 101.18 91.152 84.8243 91.3464 82.71Z" fill="#F7D167"/>
<path fill-rule="evenodd" clip-rule="evenodd" d="M94.2713 89.2198L110.657 184.581L96.1802 184.521L85.4281 138.905L80.0493 185.29L66.1641 185.112L65.2138 89.3404L94.2713 89.2198Z" fill="#3B4161"/>
<path fill-rule="evenodd" clip-rule="evenodd" d="M72.6521 91.4957C74.1557 91.8162 93.0499 91.4327 94.7753 90.4715C96.5007 89.5102 96.1446 86.3963 91.8914 85.3446C93.3977 84.9694 96.5965 83.1345 92.2831 82.4909C91.5135 74.7815 94.8547 46.5592 81.5693 46.0663C72.1783 44.6832 70.6145 52.9294 70.6145 52.9294C70.6145 52.9294 71.1486 91.1753 72.6521 91.4957Z" fill="#6367FD"/>
<path fill-rule="evenodd" clip-rule="evenodd" d="M81.572 21.5604C86.6195 21.5604 90.7111 26.3175 90.7111 32.1838C90.7111 38.0501 86.6195 42.7963 81.572 42.7963C79.4383 42.7629 77.3989 41.9108 75.8756 40.4163C76.0645 37.7543 76.0892 35.0512 75.6784 33.6381C75.043 31.8853 75.273 32.6193 75.9248 32.5426L75.3525 32.0551C75.3525 30.8364 75.1498 31.6689 73.9311 31.6689L72.4851 31.6087C72.7343 26.0163 76.6972 21.5604 81.572 21.5604Z" fill="#F77F89"/>
<path fill-rule="evenodd" clip-rule="evenodd" d="M92.0064 30.3242C90.051 29.8093 88.5201 28.8645 86.833 25.8601C84.8228 27.7087 83.1139 27.7444 80.1287 27.1583C80.304 28.618 80.4464 30.2694 78.5266 30.4666C76.6068 30.6638 70.9322 33.1341 70.9322 33.1341L71.2061 26.6598L76.2151 21.0455L82.065 19.9774L87.2219 22.3957L90.4426 26.5749C90.4426 26.5749 93.9509 30.8254 92.0064 30.3242Z" fill="black"/>
<path fill-rule="evenodd" clip-rule="evenodd" d="M79.047 31.1678C79.047 30.38 78.8135 29.6099 78.376 28.9548C77.9385 28.2997 77.3166 27.7889 76.589 27.4871C75.8613 27.1853 75.0605 27.1059 74.2878 27.259C73.515 27.412 72.805 27.7907 72.2474 28.3472C71.6898 28.9037 71.3096 29.6129 71.1549 30.3854C71.0003 31.1578 71.078 31.9587 71.3783 32.687C71.6787 33.4153 72.1881 34.0382 72.8424 34.477C73.4966 34.9159 74.2662 35.151 75.0539 35.1526C75.578 35.154 76.0972 35.052 76.5818 34.8523C77.0664 34.6527 77.5068 34.3594 77.8777 33.9892C78.2487 33.619 78.543 33.1792 78.7436 32.695C78.9442 32.2109 79.0473 31.6919 79.047 31.1678Z" fill="#F77F89"/>
<path fill-rule="evenodd" clip-rule="evenodd" d="M82.9578 41.3364C82.5717 43.2179 82.8866 45.6554 83.344 47.3944C81.9938 48.1667 76.5876 48.4324 74.9444 47.2493C75.5716 44.957 76.5274 36.5684 75.6756 33.6407C77.82 33.4545 83.344 39.4522 82.9578 41.3364Z" fill="#F77F89"/>
<path fill-rule="evenodd" clip-rule="evenodd" d="M72.4193 99.0655C73.0085 100.035 73.6484 100.973 74.3364 101.875C74.3364 101.875 76.1357 101.306 76.6287 101.966C77.1217 102.626 80.4108 106.786 78.795 108.202C77.1792 109.618 75.3661 106.082 74.8568 105.622C73.1795 107.15 71.5981 108.78 70.1216 110.502C70.1216 110.502 70.1352 108.013 69.8614 107.136C69.5875 106.26 67.9005 103.921 67.3363 103.302C66.7721 102.683 71.4936 97.5099 72.4193 99.0655Z" fill="#F77F89"/>
<path fill-rule="evenodd" clip-rule="evenodd" d="M74.3665 47.4082C75.2237 49.5718 76.248 51.686 78.9018 53.2361C79.0524 55.6599 76.7903 88.883 74.9143 92.3228C74.1552 93.671 73.2123 94.907 72.1126 95.9954C72.6904 97.5455 73.208 98.9504 72.9944 99.3996C72.7206 99.9856 67.9635 104.055 67.3199 103.877C66.8981 103.762 65.7013 102.524 64.6935 101.413C60.0377 104.096 55.7407 106.008 55.6558 108.514C55.6558 110.305 56.2583 110.866 56.995 111.729C55.9324 111.203 53.3827 108.517 53.3279 105.211C53.2594 101.043 57.2771 93.7524 57.9837 91.9038C56.6718 90.4139 52.0818 84.1012 51 78.5526C53.777 67.7649 64.7455 47.7067 74.3665 47.4082Z" fill="#F7D167"/>
<path d="M70.9295 67.1733C69.9874 68.6714 63.4446 78.5444 63.4446 78.5444C63.4446 78.5444 69.5765 91.1232 71.699 95.5051" stroke="#FF3274" stroke-width="0.5" stroke-linecap="round" stroke-linejoin="round"/>
<path d="M53.9523 85.0652C55.1051 84.5046 56.0645 83.613 56.7078 82.5043C57.3512 81.3956 57.6493 80.1203 57.564 78.8413C57.4788 77.5623 57.014 76.3378 56.2292 75.3243C55.4443 74.3108 54.3751 73.5544 53.1581 73.1519" stroke="#FF3274" stroke-width="0.5" stroke-linecap="round" stroke-linejoin="round"/>
<path d="M61.1742 76.3507L63.4474 78.5417" stroke="#FF3274" stroke-width="0.5" stroke-linecap="round" stroke-linejoin="round"/>
<path d="M60.6402 79.837L63.4474 78.38" stroke="#FF3274" stroke-width="0.5" stroke-linecap="round" stroke-linejoin="round"/>
<path d="M71.6169 96.9813C70.9815 97.7043 66.9611 100.561 65.8656 101.026" stroke="#FF3274" stroke-width="0.5" stroke-linecap="round" stroke-linejoin="round"/>
<path d="M105.048 69.3178C104.446 68.6916 103.671 68.2596 102.822 68.0773C101.973 67.8949 101.088 67.9704 100.282 68.2942C99.4766 68.618 98.7858 69.1752 98.2989 69.8944C97.8119 70.6135 97.551 71.4618 97.5496 72.3303V72.4317" stroke="#FF3274" stroke-width="0.5" stroke-linecap="round" stroke-linejoin="round"/>
<path d="M99.19 60.3923L101.439 63.7363" stroke="#FF3274" stroke-width="0.5" stroke-linecap="round" stroke-linejoin="round"/>
<path d="M97.1853 63.0215L99.1216 60.3348" stroke="#FF3274" stroke-width="0.5" stroke-linecap="round" stroke-linejoin="round"/>
<path d="M110.052 45.5651L116.334 49.5663" stroke="#FF3274" stroke-width="0.5" stroke-linecap="round" stroke-linejoin="round"/>
<path d="M85.4445 138.949C85.8389 136.276 87.3397 113.394 86.2826 105.43" stroke="#737999" stroke-width="0.5" stroke-linecap="round" stroke-linejoin="round"/>
<path d="M69.9791 145.076L65.7588 143.394L70.2996 140.562" stroke="#737999" stroke-width="0.5" stroke-linecap="round" stroke-linejoin="round"/>
<path d="M91.3464 145.856L86.918 145.201L89.7991 142.107" stroke="#737999" stroke-width="0.5" stroke-linecap="round" stroke-linejoin="round"/>
<path d="M95.3011 95.2094C93.9317 95.3956 80.786 96.1213 72.2961 95.7105" stroke="#737999" stroke-width="0.5" stroke-linecap="round" stroke-linejoin="round"/>
<path d="M109.731 179.142L94.8218 178.72" stroke="#737999" stroke-width="0.5" stroke-linecap="round" stroke-linejoin="round"/>
<path d="M80.6519 180.177L66.1176 179.764" stroke="#737999" stroke-width="0.5" stroke-linecap="round" stroke-linejoin="round"/>
<path d="M74.9033 105.66L68.8289 111.792" stroke="#737999" stroke-width="0.5" stroke-linecap="round" stroke-linejoin="round"/>
<path d="M78.5786 101.952L77.4421 103.097" stroke="#737999" stroke-width="0.5" stroke-linecap="round" stroke-linejoin="round"/>
<path d="M75.7578 185.236L79.9836 95.8256" stroke="#737999" stroke-width="0.5" stroke-linecap="round" stroke-linejoin="round"/>
<path d="M86.414 123.971L101.072 184.54" stroke="#737999" stroke-width="0.5" stroke-linecap="round" stroke-linejoin="round"/>
<path fill-rule="evenodd" clip-rule="evenodd" d="M83.344 32.1454C83.344 31.5977 83.1194 31.1677 82.84 31.1677C82.5607 31.1677 82.3334 31.6059 82.3334 32.1454C82.3334 32.685 82.5607 33.1204 82.84 33.1204C83.1194 33.1204 83.344 32.6822 83.344 32.1454Z" fill="#B5545C"/>
<path fill-rule="evenodd" clip-rule="evenodd" d="M89.1336 32.1454C89.1336 31.5977 88.9063 31.1677 88.6269 31.1677C88.3476 31.1677 88.123 31.6059 88.123 32.1454C88.123 32.685 88.3476 33.1204 88.6269 33.1204C88.9063 33.1204 89.1336 32.6822 89.1336 32.1454Z" fill="#B5545C"/>
<path d="M86.247 32.3262C86.1648 33.0875 86.3291 34.791 86.9043 35.5359" stroke="#B5545C" stroke-width="0.5" stroke-linecap="round" stroke-linejoin="round"/>
<path d="M82.5196 37.0477C82.4943 37.148 82.4814 37.251 82.4813 37.3545C82.4801 37.5513 82.527 37.7454 82.618 37.9199C82.7089 38.0944 82.8411 38.2441 83.0031 38.3558C83.1651 38.4676 83.3519 38.5381 83.5474 38.5612C83.7428 38.5843 83.9409 38.5592 84.1245 38.4883" stroke="#B5545C" stroke-width="0.5" stroke-linecap="round" stroke-linejoin="round"/>
<path d="M82.8291 42.6866C82.4134 42.7537 81.9931 42.7876 81.572 42.788C80.484 42.7865 79.4083 42.557 78.4143 42.1143" stroke="#B5545C" stroke-width="0.5" stroke-linecap="round" stroke-linejoin="round"/>
<path d="M77.5188 30.6885C77.4433 30.2014 77.2299 29.7462 76.9036 29.3768C76.5773 29.0074 76.152 28.7393 75.678 28.6043C75.204 28.4693 74.7013 28.473 74.2293 28.6151C73.7574 28.7571 73.3361 29.0315 73.0153 29.4057C72.6946 29.7799 72.4879 30.2382 72.4197 30.7263C72.3515 31.2144 72.4247 31.7118 72.6306 32.1596C72.8365 32.6074 73.1665 32.9867 73.5815 33.2526C73.9964 33.5186 74.4789 33.6599 74.9718 33.66C75.2182 33.659 75.4634 33.624 75.7003 33.5559" stroke="#B5545C" stroke-width="0.5" stroke-linecap="round" stroke-linejoin="round"/>
<path d="M58.4958 92.4624L64.206 100.678" stroke="#FF3274" stroke-width="0.5" stroke-linecap="round" stroke-linejoin="round"/>
<path fill-rule="evenodd" clip-rule="evenodd" d="M74.2323 188.267L66.1258 188.199L66.2052 199.767L91.2643 199.608C91.1684 197.228 86.5592 193 80.9394 192.162C75.3196 191.324 74.2323 189.023 74.2323 188.267Z" fill="#9B9B9B"/>
<path d="M86.7208 194.306C85.7045 195.18 84.8183 196.194 84.0889 197.319" stroke="#4E4242" stroke-width="0.5" stroke-linecap="round" stroke-linejoin="round"/>
<path d="M82.914 192.8C81.8963 193.672 81.0099 194.687 80.2821 195.812" stroke="#4E4242" stroke-width="0.5" stroke-linecap="round" stroke-linejoin="round"/>
<path d="M80.86 192.562C87.945 184.913 74.4104 182.957 80.8353 192.562" stroke="#4E4242" stroke-width="0.5" stroke-linecap="round" stroke-linejoin="round"/>
<path d="M80.8052 192.548C73.2409 183.612 68.9275 198.417 80.8052 192.575" stroke="#4E4242" stroke-width="0.5" stroke-linecap="round" stroke-linejoin="round"/>
<path d="M66.1313 190.206H75.4839" stroke="#4E4242" stroke-width="0.5" stroke-linecap="round" stroke-linejoin="round"/>
<path d="M66.197 199.734L91.1493 199.608" stroke="#4E4242" stroke-width="0.5" stroke-linecap="round" stroke-linejoin="round"/>
<path fill-rule="evenodd" clip-rule="evenodd" d="M104.681 188.5L96.5773 188.432L96.6568 200L121.713 199.849C121.617 197.469 117.008 193.241 111.388 192.403C105.768 191.565 104.681 189.256 104.681 188.5Z" fill="#9B9B9B"/>
<path d="M117.178 194.539C116.162 195.413 115.275 196.427 114.546 197.552" stroke="#4E4242" stroke-width="0.5" stroke-linecap="round" stroke-linejoin="round"/>
<path d="M113.371 193.033C112.353 193.905 111.467 194.92 110.739 196.045" stroke="#4E4242" stroke-width="0.5" stroke-linecap="round" stroke-linejoin="round"/>
<path d="M111.317 192.792C118.402 185.145 104.867 183.19 111.292 192.792" stroke="#4E4242" stroke-width="0.5" stroke-linecap="round" stroke-linejoin="round"/>
<path d="M111.265 192.781C103.701 183.842 99.39 198.65 111.265 192.808" stroke="#4E4242" stroke-width="0.5" stroke-linecap="round" stroke-linejoin="round"/>
<path d="M96.591 190.439H105.944" stroke="#4E4242" stroke-width="0.5" stroke-linecap="round" stroke-linejoin="round"/>
<path d="M96.6567 199.967L121.612 199.849" stroke="#4E4242" stroke-width="0.5" stroke-linecap="round" stroke-linejoin="round"/>
<path fill-rule="evenodd" clip-rule="evenodd" d="M120.116 40.2027C120.483 39.3318 120.322 36.0316 118.32 34.9362L120.116 40.2027Z" fill="#F77F89"/>
<path d="M120.116 40.2027C120.483 39.3318 120.322 36.0316 118.32 34.9362" stroke="#B5545C" stroke-width="0.5" stroke-linecap="round" stroke-linejoin="round"/>
<path fill-rule="evenodd" clip-rule="evenodd" d="M117.422 41.257C117.646 40.1616 117.06 37.8583 115.869 37.0449L117.422 41.257Z" fill="#F77F89"/>
<path d="M117.422 41.257C117.646 40.1616 117.06 37.8583 115.869 37.0449" stroke="#B5545C" stroke-width="0.5" stroke-linecap="round" stroke-linejoin="round"/>
<path d="M78.8662 53.217C77.1025 51.8887 75.1005 49.3417 74.4104 47.5205" stroke="#FF3274" stroke-width="0.5" stroke-linecap="round" stroke-linejoin="round"/>
<path d="M90.5768 85.5992C85.4035 86.7194 79.2414 86.3277 76.2288 85.9909" stroke="#4C4FD9" stroke-width="0.5" stroke-linecap="round" stroke-linejoin="round"/>
<path d="M59.4844 59.6367V147H35.3438V89.7539C31.4375 92.7227 27.6484 95.125 23.9766 96.9609C20.3438 98.7969 15.7734 100.555 10.2656 102.234V82.6641C18.3906 80.0469 24.6992 76.9023 29.1914 73.2305C33.6836 69.5586 37.1992 65.0273 39.7383 59.6367H59.4844Z" fill="#191919"/>
</svg>
