<svg width="114" height="203" viewBox="0 0 114 203" fill="none" xmlns="http://www.w3.org/2000/svg">
<path fill-rule="evenodd" clip-rule="evenodd" d="M91.2585 186.011L89.0824 193.129L80.3833 193.442L79.8019 182.739L91.2585 186.011Z" fill="#F77F89"/>
<path fill-rule="evenodd" clip-rule="evenodd" d="M80.0015 192.21V201.563L103.524 202.091C103.524 202.091 102.855 195.408 90.8268 195.299C90.8717 192.362 90.8767 192.21 90.8767 192.21H80.0015Z" fill="#6367FD"/>
<path fill-rule="evenodd" clip-rule="evenodd" d="M69.2736 187.356L69.4358 194.365L78.5192 194.68L80.8799 186.88L69.2736 187.356Z" fill="#F77F89"/>
<path fill-rule="evenodd" clip-rule="evenodd" d="M83.011 21C92.8955 21 94.9417 30.3424 94.9467 33.7735C94.9467 37.0433 94.3054 37.5423 94.3278 40.8567C94.3428 43.3742 95.0765 45.1369 95.0091 46.5669C94.6198 54.0151 84.4983 56.1626 81.6086 56.2048C78.7189 56.247 66.1368 53.8239 66.1368 48.0342C66.1368 43.9949 68.7196 37.5348 68.6498 33.0486C68.495 23.731 76.3257 21 83.011 21Z" fill="black"/>
<path fill-rule="evenodd" clip-rule="evenodd" d="M69.2237 193.121L69.3584 202.481L92.4488 203C92.4488 203 92.4488 196.175 79.8019 196.048V193.121H69.2237Z" fill="#6367FD"/>
<path fill-rule="evenodd" clip-rule="evenodd" d="M66.9578 122.915L67.0177 188.392L83.5176 188.034L83.7671 185.003L94.4077 186.43L101.16 118.156L97.5145 100.673L73.416 100.017L66.9578 122.915Z" fill="#3B4161"/>
<path fill-rule="evenodd" clip-rule="evenodd" d="M86.3973 150.736L96.2918 167.279L94.4127 186.256L83.7546 185.015L86.3973 150.736Z" fill="#15192C"/>
<path fill-rule="evenodd" clip-rule="evenodd" d="M79.4551 105.909H96.983L99.3562 80.1456L96.1895 60.4031L90.2004 54.6656L84.1964 51.9991L73.3537 53.6477L79.4551 105.909Z" fill="#F7D167"/>
<path d="M72.5626 188.273L72.6774 118.625" stroke="#737999" stroke-width="0.5" stroke-linecap="round" stroke-linejoin="round"/>
<path fill-rule="evenodd" clip-rule="evenodd" d="M76.443 51.6814C72.3455 51.7931 60.1104 56.2123 58.3236 60.6961C56.9661 64.0974 56.0353 94.873 59.2245 96.3751C59.4292 96.4735 59.6432 96.5517 59.8633 96.6084C59.6712 97.5519 57.8345 119.397 58.3012 121.215C58.7678 123.032 59.9931 125.783 61.7673 125.683C68.6323 125.274 81.2443 116.309 82.497 114.846C82.6891 112.076 83.2207 101.668 83.2207 101.668L82.1277 70.7883L75.8716 53.7718C75.8716 53.7718 80.5406 51.5696 76.443 51.6814Z" fill="white"/>
<path fill-rule="evenodd" clip-rule="evenodd" d="M85.3717 51.4877C92.4163 52.3591 102.361 57.7938 103.641 60.269C104.719 62.3495 104.172 89.2844 104.172 89.2844C104.172 89.2844 100.18 94.734 101.979 102.572C103.631 109.802 104.12 119.561 102.388 121.386C99.5333 119.948 95.8625 114.186 95.2012 112.766C94.54 111.346 94.3678 103.312 93.8587 101.594C93.3496 99.8757 91.0713 69.46 91.0713 69.46C91.0713 69.46 90.0082 57.1731 85.3717 51.4877Z" fill="white"/>
<path d="M67.6366 54.0747C71.1826 60.5074 78.367 67.8388 82.0702 70.6369" stroke="#C9C9C9" stroke-width="0.5" stroke-linecap="round" stroke-linejoin="round"/>
<path d="M88.9377 52.225C92.0944 56.4605 92.9079 63.6579 90.4349 70.967" stroke="#C9C9C9" stroke-width="0.5" stroke-linecap="round" stroke-linejoin="round"/>
<path d="M71.22 72.0446C71.22 71.4916 71.3849 70.951 71.6938 70.4912C72.0026 70.0314 72.4416 69.6731 72.9552 69.4616C73.4688 69.2501 74.0339 69.1949 74.579 69.3029C75.1241 69.411 75.6248 69.6775 76.0177 70.0687C76.4105 70.4599 76.6779 70.9583 76.7861 71.5007C76.8942 72.0431 76.8382 72.6053 76.6252 73.1161C76.4121 73.6269 76.0516 74.0633 75.5892 74.3702C75.1268 74.6771 74.5833 74.8406 74.0274 74.8401C73.2826 74.8394 72.5686 74.5446 72.0421 74.0204C71.5157 73.4962 71.22 72.7856 71.22 72.0446V72.0446Z" stroke="#353823" stroke-width="0.5" stroke-linecap="round" stroke-linejoin="round"/>
<path fill-rule="evenodd" clip-rule="evenodd" d="M72.5876 72.0445C72.5876 71.7622 72.6717 71.4862 72.8294 71.2514C72.9871 71.0166 73.2112 70.8337 73.4734 70.7256C73.7355 70.6176 74.0241 70.5893 74.3024 70.6444C74.5807 70.6995 74.8364 70.8354 75.0371 71.0351C75.2377 71.2347 75.3744 71.4891 75.4298 71.766C75.4851 72.0429 75.4567 72.3299 75.3481 72.5908C75.2395 72.8517 75.0556 73.0746 74.8196 73.2315C74.5837 73.3883 74.3063 73.4721 74.0225 73.4721C73.6419 73.4721 73.2769 73.3216 73.0079 73.0539C72.7388 72.7862 72.5876 72.4231 72.5876 72.0445Z" fill="#353823"/>
<path d="M73.2688 69.3508C71.3723 62.4215 71.25 52.7787 76.1461 51.0408" stroke="#353823" stroke-width="0.5" stroke-linecap="round" stroke-linejoin="round"/>
<path d="M84.6954 49.8615C87.4878 51.0383 90.148 56.4655 90.7718 61.1131" stroke="#353823" stroke-width="0.5" stroke-linecap="round" stroke-linejoin="round"/>
<path d="M87.7574 69.8424C86.864 65.5473 88.2115 61.6494 90.7669 61.1132C93.3222 60.5769 96.1196 63.6406 97.0055 67.9357C97.8914 72.2307 96.5513 76.1286 93.996 76.6624C91.4406 77.1962 88.6507 74.13 87.7574 69.8424Z" stroke="#353823" stroke-width="0.5" stroke-linecap="round" stroke-linejoin="round"/>
<path d="M70.3791 63.0869L69.3011 83.969" stroke="#C9C9C9" stroke-width="0.5" stroke-linecap="round" stroke-linejoin="round"/>
<path d="M67.3446 63.7026L70.147 67.5906" stroke="#C9C9C9" stroke-width="0.5" stroke-linecap="round" stroke-linejoin="round"/>
<path fill-rule="evenodd" clip-rule="evenodd" d="M76.71 82.3081L65.9347 84.8727L76.71 82.3081Z" fill="#606060"/>
<path d="M76.71 82.3081L65.9347 84.8727" stroke="#C9C9C9" stroke-width="0.5" stroke-linecap="round" stroke-linejoin="round"/>
<path d="M66.4787 82.0052L69.2237 84.0907" stroke="#C9C9C9" stroke-width="0.5" stroke-linecap="round" stroke-linejoin="round"/>
<path d="M77.1193 94.4013C72.5876 96.2161 61.8222 98.386 59.7884 96.5885C57.0684 94.1828 56.2948 69.3532 57.6598 62.7666C58.4559 58.9333 62.476 56.4655 64.5722 55.4724" stroke="#C9C9C9" stroke-width="0.5" stroke-linecap="round" stroke-linejoin="round"/>
<path d="M73.8802 95.4639C72.5876 93.8328 72.0935 85.6994 72.7173 83.2589" stroke="#C9C9C9" stroke-width="0.5" stroke-linecap="round" stroke-linejoin="round"/>
<path fill-rule="evenodd" clip-rule="evenodd" d="M74.0225 84.8479C74.022 84.7181 74.0602 84.5912 74.1323 84.483C74.2044 84.3749 74.3071 84.2905 74.4274 84.2405C74.5478 84.1906 74.6803 84.1772 74.8082 84.2022C74.9362 84.2272 75.0538 84.2895 75.1462 84.381C75.2386 84.4726 75.3016 84.5894 75.3272 84.7166C75.3528 84.8438 75.3399 84.9757 75.2901 85.0956C75.2404 85.2155 75.1559 85.318 75.0475 85.3902C74.9391 85.4623 74.8117 85.5008 74.6813 85.5008C74.5949 85.5011 74.5093 85.4845 74.4293 85.4518C74.3494 85.4191 74.2768 85.3711 74.2156 85.3104C74.1544 85.2498 74.1058 85.1777 74.0727 85.0983C74.0395 85.0189 74.0225 84.9338 74.0225 84.8479Z" fill="#C9C9C9"/>
<path d="M72.8221 104.784C71.3892 105.335 69.8663 105.617 68.3303 105.616C67.1906 105.605 66.0579 105.438 64.964 105.119C64.8818 105.434 64.8374 105.757 64.8317 106.083V111.269C64.8317 112.355 65.2655 113.397 66.0377 114.166C66.8099 114.934 67.8572 115.365 68.9492 115.365C70.0412 115.365 71.0885 114.934 71.8607 114.166C72.6329 113.397 73.0667 112.355 73.0667 111.269V106.078C73.0562 105.636 72.9736 105.199 72.8221 104.784Z" stroke="#C9C9C9" stroke-width="0.5" stroke-linecap="round" stroke-linejoin="round"/>
<path fill-rule="evenodd" clip-rule="evenodd" d="M88.793 68.3005H110.311C111.616 68.3005 112.395 69.316 112.058 70.5672L103.751 100.971C103.548 101.61 103.151 102.171 102.615 102.577C102.079 102.983 101.429 103.213 100.756 103.237H79.2504C77.9478 103.237 77.1667 102.222 77.5036 100.971L85.8084 70.5672C86.0102 69.9293 86.4053 69.3691 86.9396 68.9633C87.4739 68.5575 88.1213 68.326 88.793 68.3005Z" fill="#9B9B9B"/>
<path fill-rule="evenodd" clip-rule="evenodd" d="M76.6476 83.7976C77.599 83.2502 78.6094 82.8113 79.6596 82.4892C81.1744 81.2479 82.2873 76.3445 82.6891 76.0342C83.0909 75.7239 84.4359 75.925 84.4758 76.3892C84.6505 78.0899 84.5582 80.0761 83.0434 81.8512C87.4504 79.0631 87.7848 77.8267 88.9976 78.7602C90.2104 79.6937 90.6471 84.247 89.6065 86.1289C86.7417 91.3227 79.2055 92.0253 76.8997 92.0601C76.3257 89.5898 76.3257 86.6031 76.6476 83.7976Z" fill="#F77F89"/>
<path d="M67.0153 183.282L84.0541 182.739" stroke="#737999" stroke-width="0.5" stroke-linecap="round" stroke-linejoin="round"/>
<path d="M88.9801 116.994L83.7746 185.005" stroke="#737999" stroke-width="0.5" stroke-linecap="round" stroke-linejoin="round"/>
<path d="M84.1964 179.541L94.9567 180.797" stroke="#737999" stroke-width="0.5" stroke-linecap="round" stroke-linejoin="round"/>
<path d="M97.819 151.943C97.1604 152.009 96.4954 151.928 95.8718 151.707C95.2483 151.487 94.6818 151.131 94.2131 150.666C93.7444 150.201 93.3852 149.638 93.1615 149.019C92.9377 148.399 92.855 147.738 92.9192 147.082C92.9833 146.427 93.1929 145.794 93.5326 145.229C93.8724 144.663 94.334 144.18 94.8841 143.814C95.4341 143.448 96.059 143.208 96.7137 143.111C97.3684 143.014 98.0365 143.063 98.6699 143.254" stroke="#737999" stroke-width="0.5" stroke-linecap="round" stroke-linejoin="round"/>
<path d="M86.1054 154.989C84.8211 154.919 83.6151 154.353 82.7439 153.411C81.8728 152.47 81.4052 151.227 81.4406 149.948C81.476 148.669 82.0117 147.454 82.9337 146.562C83.8556 145.669 85.0911 145.17 86.3774 145.17C86.5438 145.17 86.701 145.178 86.849 145.193" stroke="#737999" stroke-width="0.5" stroke-linecap="round" stroke-linejoin="round"/>
<path d="M89.7737 80.1108L85.9182 83.1819" stroke="#A7464F" stroke-width="0.5" stroke-linecap="round" stroke-linejoin="round"/>
<path d="M90.1854 83.2887L85.2893 87.1617" stroke="#A7464F" stroke-width="0.5" stroke-linecap="round" stroke-linejoin="round"/>
<path fill-rule="evenodd" clip-rule="evenodd" d="M111.686 83.1422C111.626 82.1193 111.936 79.8477 112.849 77.6803C113.183 76.8957 113.203 75.6047 112.028 75.6047C110.69 75.6047 108.901 78.2761 109.782 81.4565C110.663 84.6368 111.773 84.5871 111.686 83.1422Z" fill="#F77F89"/>
<path fill-rule="evenodd" clip-rule="evenodd" d="M107.544 77.1316C108.607 77.1316 111.838 83.4923 111.816 84.2644C111.793 85.0365 111.457 86.2109 110.955 86.1513C110.453 86.0917 106.256 80.7762 106.256 78.9713C106.256 77.9261 106.768 77.1316 107.544 77.1316Z" fill="#F77F89"/>
<path fill-rule="evenodd" clip-rule="evenodd" d="M106.156 80.786C107.481 80.786 110.975 85.8557 111 86.4367C111.025 87.0176 110.319 87.5514 109.735 87.5762C109.151 87.6011 104.976 84.1948 104.976 82.6108C104.968 81.6425 105.408 80.786 106.156 80.786Z" fill="#F77F89"/>
<path fill-rule="evenodd" clip-rule="evenodd" d="M107.379 90.2677C107.953 90.2404 109.55 88.8203 109.55 87.7031C109.55 87.2636 108.435 86.1265 107.876 86.1613C107.317 86.1961 106.176 88.3337 106.199 88.8774C106.221 89.4211 106.628 90.295 107.379 90.2677Z" fill="#F77F89"/>
<path d="M109.55 79.4827C110.695 81.3795 111.828 83.8076 111.816 84.2644" stroke="#A7464F" stroke-width="0.5" stroke-linecap="round" stroke-linejoin="round"/>
<path d="M106.957 81.1584C108.534 82.3402 110.972 85.9526 110.992 86.4367" stroke="#A94B53" stroke-width="0.5" stroke-linecap="round" stroke-linejoin="round"/>
<path fill-rule="evenodd" clip-rule="evenodd" d="M72.4827 35.5213C72.4827 29.8384 77.0519 25.2206 82.6991 25.2206C88.3463 25.2206 92.9054 29.8285 92.9054 35.5114C92.9054 41.1943 88.3263 45.8122 82.6991 45.8122C77.0718 45.8122 72.4827 41.2068 72.4827 35.5213Z" fill="#F77F89"/>
<path fill-rule="evenodd" clip-rule="evenodd" d="M81.1869 36.2638C81.2967 35.6083 81.686 35.1242 82.0753 35.1888C82.4646 35.2533 82.6792 35.8343 82.5744 36.4897C82.4696 37.1451 82.0753 37.6293 81.686 37.5672C81.2967 37.5051 81.0796 36.9217 81.1869 36.2638Z" fill="#B5545C"/>
<path fill-rule="evenodd" clip-rule="evenodd" d="M88.8753 36.7552C88.9776 36.1419 89.347 35.6901 89.7038 35.7497C90.0607 35.8092 90.2678 36.353 90.168 36.9662C90.0682 37.5794 89.6938 38.0288 89.337 37.9593C88.9801 37.8898 88.773 37.3684 88.8753 36.7552Z" fill="#B5545C"/>
<path fill-rule="evenodd" clip-rule="evenodd" d="M74.0424 40.0522C74.6488 41.7306 76.1735 50.4523 75.7892 53.6202C77.3863 56.0285 84.5033 55.3581 86.6244 53.3198C85.5688 50.3878 85.5289 48.2849 85.9157 45.8121C86.2825 43.4982 73.436 38.3789 74.0424 40.0522Z" fill="#F77F89"/>
<path fill-rule="evenodd" clip-rule="evenodd" d="M86.7392 24.9723C86.8265 27.4178 84.5831 29.754 78.4843 30.9135C79.153 32.629 79.2079 35.2086 75.8765 35.6728C71.9911 36.2091 71.6742 31.271 71.6742 31.271L77.4936 24.4311C77.4936 24.4311 86.6543 22.5219 86.7392 24.9723Z" fill="black"/>
<path fill-rule="evenodd" clip-rule="evenodd" d="M84.9075 23.2518C84.658 25.4242 87.1709 30.7 92.9903 30.8439C97.1277 30.8439 85.1496 21.077 84.9075 23.2518Z" fill="black"/>
<path fill-rule="evenodd" clip-rule="evenodd" d="M78.1574 45.4473C77.5984 44.7447 78.4069 41.542 79.2878 40.0747C80.3509 39.4516 84.1215 39.9704 86.0655 38.307C86.6369 37.8105 86.9438 38.1779 87.388 38.7216C88.1691 39.675 90.5173 40.1691 91.3957 40.7078C91.5255 42.0981 90.2428 45.281 89.6888 45.9935C88.8204 47.1231 80.8824 47.2249 78.1574 45.4473Z" fill="white"/>
<path d="M79.8019 40.3651C79.2878 39.5111 77.0419 35.6902 76.3257 34.7219" stroke="white" stroke-width="0.5" stroke-linecap="round" stroke-linejoin="round"/>
<path d="M78.5991 45.2437C77.0793 45.2437 73.4659 40.5142 73.0542 38.9277" stroke="white" stroke-width="0.5" stroke-linecap="round" stroke-linejoin="round"/>
<path fill-rule="evenodd" clip-rule="evenodd" d="M70.736 36.3655C70.736 35.7109 70.9311 35.0711 71.2966 34.5269C71.6621 33.9826 72.1816 33.5584 72.7894 33.3079C73.3972 33.0575 74.0661 32.9919 74.7113 33.1196C75.3566 33.2473 75.9493 33.5625 76.4145 34.0253C76.8797 34.4882 77.1965 35.0779 77.3249 35.7198C77.4532 36.3618 77.3874 37.0272 77.1356 37.632C76.8838 38.2367 76.4575 38.7535 75.9104 39.1172C75.3634 39.4808 74.7203 39.6749 74.0624 39.6749C73.1802 39.6749 72.3341 39.3263 71.7102 38.7056C71.0864 38.085 70.736 37.2432 70.736 36.3655Z" fill="#F77F89"/>
<path d="M91.755 200.788L69.331 200.634" stroke="#4C4FD9" stroke-width="0.5" stroke-linecap="round" stroke-linejoin="round"/>
<path d="M92.2342 201.883C91.6178 199.944 89.2072 196.145 79.8019 196.053V195.112" stroke="#4C4FD9" stroke-width="0.5" stroke-linecap="round" stroke-linejoin="round"/>
<path d="M69.331 198.062C69.8881 198.062 70.4397 198.171 70.9544 198.383C71.4691 198.595 71.9368 198.906 72.3307 199.298C72.7246 199.69 73.0371 200.155 73.2503 200.667C73.4635 201.18 73.5732 201.728 73.5732 202.283C73.5732 202.394 73.5732 202.504 73.5732 202.613" stroke="#4C4FD9" stroke-width="0.5" stroke-linecap="round" stroke-linejoin="round"/>
<path d="M82.2874 198.196L83.3878 196.299" stroke="#4C4FD9" stroke-width="0.5" stroke-linecap="round" stroke-linejoin="round"/>
<path d="M84.8776 198.643L85.8159 196.781" stroke="#4C4FD9" stroke-width="0.5" stroke-linecap="round" stroke-linejoin="round"/>
<path d="M87.3281 199.132L88.1441 197.625" stroke="#4C4FD9" stroke-width="0.5" stroke-linecap="round" stroke-linejoin="round"/>
<path d="M82.8713 108.302L94.525 107.94" stroke="#737999" stroke-width="0.5" stroke-linecap="round" stroke-linejoin="round"/>
<path d="M69.2411 194.325L79.8019 194.154" stroke="#4C4FD9" stroke-width="0.5" stroke-linecap="round" stroke-linejoin="round"/>
<path d="M80.0015 193.3L90.8617 193.213" stroke="#4C4FD9" stroke-width="0.5" stroke-linecap="round" stroke-linejoin="round"/>
<path d="M102.96 200.455L91.3757 200.207" stroke="#4C4FD9" stroke-width="0.5" stroke-linecap="round" stroke-linejoin="round"/>
<path d="M94.3453 195.549L93.3472 197.315" stroke="#4C4FD9" stroke-width="0.5" stroke-linecap="round" stroke-linejoin="round"/>
<path d="M96.0098 195.944L95.0116 197.712" stroke="#4C4FD9" stroke-width="0.5" stroke-linecap="round" stroke-linejoin="round"/>
<path d="M97.7865 196.431L96.7883 198.198" stroke="#4C4FD9" stroke-width="0.5" stroke-linecap="round" stroke-linejoin="round"/>
<path d="M64.8541 125.075C61.111 126.634 58.3011 123.856 58.2787 121.103C58.2562 118.35 59.3517 101.922 59.5014 100.283" stroke="#C9C9C9" stroke-width="0.5" stroke-linecap="round" stroke-linejoin="round"/>
<path d="M104.115 64.1991C104.31 58.5782 98.3604 56.0061 95.9124 54.9038" stroke="#C9C9C9" stroke-width="0.5" stroke-linecap="round" stroke-linejoin="round"/>
<path d="M102.952 120.308C103.419 117.312 103.451 109.203 102.663 106.11" stroke="#C9C9C9" stroke-width="0.5" stroke-linecap="round" stroke-linejoin="round"/>
<path d="M75.2461 147H3.64453C4.46484 139.93 6.94531 133.289 11.0859 127.078C15.2656 120.828 23.0781 113.465 34.5234 104.988C41.5156 99.793 45.9883 95.8477 47.9414 93.1523C49.8945 90.457 50.8711 87.8984 50.8711 85.4766C50.8711 82.8594 49.8945 80.6328 47.9414 78.7969C46.0273 76.9219 43.6055 75.9844 40.6758 75.9844C37.6289 75.9844 35.1289 76.9414 33.1758 78.8555C31.2617 80.7695 29.9727 84.1484 29.3086 88.9922L5.40234 87.0586C6.33984 80.3398 8.05859 75.1055 10.5586 71.3555C13.0586 67.5664 16.5742 64.6758 21.1055 62.6836C25.6758 60.6523 31.9844 59.6367 40.0312 59.6367C48.4297 59.6367 54.9531 60.5937 59.6016 62.5078C64.2891 64.4219 67.9609 67.3711 70.6172 71.3555C73.3125 75.3008 74.6602 79.7344 74.6602 84.6562C74.6602 89.8906 73.1172 94.8906 70.0312 99.6562C66.9844 104.422 61.418 109.656 53.332 115.359C48.5273 118.68 45.3047 121.004 43.6641 122.332C42.0625 123.66 40.168 125.398 37.9805 127.547H75.2461V147Z" fill="#191919"/>
</svg>
