<svg width="137" height="202" viewBox="0 0 137 202" fill="none" xmlns="http://www.w3.org/2000/svg">
<path fill-rule="evenodd" clip-rule="evenodd" d="M46.6381 170.935L43.2334 175.705L50.2471 184.495L53.4718 178.852L46.6381 170.935Z" fill="#F77F89"/>
<path fill-rule="evenodd" clip-rule="evenodd" d="M42.9189 173.536L34.8572 182.85L47.5222 197.63C47.5222 197.63 55.9279 197.539 58.5829 197.539C58.5291 194.314 56.1859 187.634 49.6612 187.892C50.978 185.581 51.9131 183.675 51.9131 183.675L42.9189 173.536Z" fill="#6367FD"/>
<path d="M49.6559 187.9C46.0093 186.774 44.3513 188.241 41.793 190.955C40.006 192.852 36.2815 192.691 34 191.603" stroke="#4C4FD9" stroke-width="0.5" stroke-linecap="round" stroke-linejoin="round"/>
<path d="M41.2986 199.745C42.5004 200.261 43.7413 200.681 45.0097 201C48.3472 198.044 50.3224 191.028 49.6962 187.9" stroke="#4C4FD9" stroke-width="0.5" stroke-linecap="round" stroke-linejoin="round"/>
<path d="M39.6621 177.202C40.4506 177.799 41.062 178.599 41.4307 179.516C41.7994 180.434 41.9117 181.434 41.7554 182.411C41.5992 183.387 41.1803 184.303 40.5436 185.06C39.907 185.816 39.0765 186.386 38.1411 186.707" stroke="#4C4FD9" stroke-width="0.5" stroke-linecap="round" stroke-linejoin="round"/>
<path d="M36.2627 181.219L48.7288 194.833L57.9649 194.295" stroke="#4C4FD9" stroke-width="0.5" stroke-linecap="round" stroke-linejoin="round"/>
<path fill-rule="evenodd" clip-rule="evenodd" d="M66.736 131.524L45.4208 170.588L53.5819 180.142L92.0983 140.397L83.6442 128.45L66.736 131.524Z" fill="#F7D167"/>
<path d="M58.0132 175.571L48.5057 164.932" stroke="#FF3274" stroke-width="0.5" stroke-linecap="round" stroke-linejoin="round"/>
<path fill-rule="evenodd" clip-rule="evenodd" d="M83.6415 128.452L66.7387 131.527L58.1395 147.298L72.9006 146.946L77.7134 155.242L92.0983 140.403L83.6415 128.452Z" fill="#BF9111"/>
<path d="M49.0271 174.81C57.7607 164.58 84.4988 133.4 84.4988 133.4" stroke="#FF3274" stroke-width="0.5" stroke-linecap="round" stroke-linejoin="round"/>
<path fill-rule="evenodd" clip-rule="evenodd" d="M107.077 183.753L109.651 189.128L121.19 187.04L119.283 180.566L107.077 183.753Z" fill="#F77F89"/>
<path fill-rule="evenodd" clip-rule="evenodd" d="M107.94 189.149L111.882 200.436C111.882 200.436 134.688 195.867 136.422 195.419C133.197 187.841 126.581 189.112 123.679 189.837C122.951 188.457 122.302 187.037 121.733 185.583L107.94 189.149Z" fill="#6367FD"/>
<path d="M123.485 187.241C123.953 185.72 125.039 184.707 125.904 184.976C126.769 185.245 127.102 186.69 126.635 188.201C126.167 189.711 125.082 190.732 124.216 190.466C123.351 190.2 123.018 188.76 123.485 187.241Z" stroke="#4C4FD9" stroke-width="0.5" stroke-linecap="round" stroke-linejoin="round"/>
<path d="M127.307 187.048C128.516 185.809 130.021 185.419 130.671 186.18C131.321 186.94 130.865 188.561 129.655 189.8C128.446 191.038 126.941 191.431 126.291 190.67C125.64 189.91 126.097 188.295 127.307 187.048Z" stroke="#4C4FD9" stroke-width="0.5" stroke-linecap="round" stroke-linejoin="round"/>
<path fill-rule="evenodd" clip-rule="evenodd" d="M116.786 98.4331C118.216 99.5886 119.699 100.964 121.604 101.685C124.453 102.375 129.666 108.088 129.666 109.319C129.666 110.485 128.626 110.878 127.978 110.931C127.419 110.966 126.229 109.674 125.928 109.306C126.447 110.488 126.748 112.09 126.173 112.592C125.598 113.095 124.77 113.269 124.206 112.619C123.278 111.544 123.507 110.324 123.421 109.609C122.964 108.736 121.72 106.793 121.193 106.557C120.825 106.575 120.271 106.704 120.167 107.293C120.062 107.881 121.43 109.196 121.583 109.744C121.583 110.44 120.822 111.324 120.167 111.149C119.42 110.95 117.109 108.706 116.598 108.094C115.91 107.269 115.598 105.471 115.23 104.869C114.862 104.267 113.432 102.988 113.166 102.719C112.9 102.451 115.359 97.2749 116.786 98.4331Z" fill="#F77F89"/>
<path fill-rule="evenodd" clip-rule="evenodd" d="M102.517 70.2627C107.652 74.6241 115.338 91.801 120.277 96.028C119.761 98.6803 111.578 108.559 105.795 106.205C98.5504 103.254 98.6391 66.9708 102.517 70.2627Z" fill="#3B4161"/>
<path fill-rule="evenodd" clip-rule="evenodd" d="M106.507 94.7462L121.733 181.203L105.782 184.965L84.8347 130L90.0372 91.801L106.507 94.7462Z" fill="#F7D167"/>
<path d="M93.0631 151.59L85.5737 131.935" stroke="#FF3274" stroke-width="0.5" stroke-linecap="round" stroke-linejoin="round"/>
<path d="M112.718 183.331L88.1105 105.949" stroke="#FF3274" stroke-width="0.5" stroke-linecap="round" stroke-linejoin="round"/>
<path d="M107.856 102.416C105.707 103.316 94.6889 105.35 90.4323 104.904" stroke="#FF3274" stroke-width="0.5" stroke-linecap="round" stroke-linejoin="round"/>
<path fill-rule="evenodd" clip-rule="evenodd" d="M61.6545 81.7829L90.5451 84.8491C92.2676 85.0318 93.5011 86.6549 93.3129 88.4768L88.621 132.669C88.4275 134.488 86.877 135.815 85.1545 135.625L56.2639 132.569C54.5413 132.386 53.3079 130.763 53.496 128.941L58.1852 84.7496C58.3787 82.9277 59.932 81.6109 61.6545 81.7829Z" fill="#6367FD"/>
<path d="M62.603 108.709C62.603 106.53 63.2492 104.4 64.4598 102.588C65.6705 100.776 67.3912 99.364 69.4044 98.5301C71.4177 97.6962 73.633 97.478 75.7702 97.9031C77.9074 98.3282 79.8706 99.3776 81.4114 100.918C82.9523 102.459 84.0016 104.422 84.4268 106.56C84.8519 108.697 84.6337 110.912 83.7998 112.925C82.9659 114.939 81.5537 116.659 79.7419 117.87C77.93 119.081 75.7998 119.727 73.6207 119.727C70.6987 119.727 67.8963 118.566 65.83 116.5C63.7638 114.434 62.603 111.631 62.603 108.709Z" stroke="#4C4FD9" stroke-width="0.5" stroke-linecap="round" stroke-linejoin="round"/>
<path fill-rule="evenodd" clip-rule="evenodd" d="M72.9114 32.4074C72.9114 29.6638 74.4565 27.4387 76.3645 27.4387C78.2724 27.4387 79.8203 29.6638 79.8203 32.4074C79.8203 35.1511 78.2724 37.3762 76.3645 37.3762C74.4565 37.3762 72.9114 35.1511 72.9114 32.4074Z" fill="#F77F89"/>
<path fill-rule="evenodd" clip-rule="evenodd" d="M74.8569 35.0141C74.8569 32.8311 75.5043 30.6972 76.7171 28.8822C77.9299 27.0672 79.6538 25.6526 81.6706 24.8174C83.6874 23.9821 85.9066 23.7637 88.0476 24.1898C90.1885 24.6159 92.155 25.6673 93.6984 27.211C95.2418 28.7548 96.2927 30.7215 96.7183 32.8626C97.1438 35.0037 96.9249 37.2228 96.0891 39.2394C95.2534 41.256 93.8384 42.9795 92.0231 44.1919C90.2078 45.4043 88.0737 46.0511 85.8908 46.0506C84.4416 46.0506 83.0065 45.7651 81.6677 45.2104C80.3288 44.6558 79.1123 43.8428 78.0877 42.8179C77.0631 41.793 76.2504 40.5764 75.6961 39.2374C75.1417 37.8984 74.8566 36.4633 74.8569 35.0141Z" fill="#F77F89"/>
<path fill-rule="evenodd" clip-rule="evenodd" d="M71.1216 105.441C70.6084 107.153 68.945 110.714 70.5278 117.085C67.5288 121.721 68.9288 124.986 75.7974 125.805C76.953 124.395 78.1112 123.47 79.401 121.433C79.8203 119.601 79.7826 116.787 79.8203 116.024C79.8928 114.481 77.6328 108.379 78.1945 105.638C78.7561 102.897 71.6349 103.727 71.1216 105.441Z" fill="#F77F89"/>
<path fill-rule="evenodd" clip-rule="evenodd" d="M84.8158 49.7537C68.9396 49.7537 62.896 83.1158 64.6292 104.463C67.9211 106.541 81.0591 107.349 84.8158 106.363C85.622 102.615 85.8907 86.9264 86.0708 84.3735C94.8393 85.2334 93.3263 86.5905 92.2676 98.3257C96.8359 98.4842 102.99 97.2508 107.585 95.3213C108.23 87.2757 103.5 49.7537 84.8158 49.7537Z" fill="#3B4161"/>
<path d="M62.603 83.8065L64.6991 63.7462C65.0269 60.6082 66.5879 57.7289 69.0387 55.7418C71.4894 53.7547 74.6291 52.8225 77.7672 53.1504L80.0164 53.3842C83.1544 53.712 86.0337 55.273 88.0208 57.7238C90.0079 60.1745 90.94 63.3142 90.6122 66.4522L88.4624 87.0769" stroke="#6367FD" stroke-width="0.5" stroke-linecap="round" stroke-linejoin="round"/>
<path fill-rule="evenodd" clip-rule="evenodd" d="M78.3207 41.4715C79.1484 45.0267 79.3553 50.0331 79.2183 52.0002C81.3224 53.2417 86.7775 54.1043 89.4003 50.584C88.1587 47.5823 87.882 46.1312 87.9868 44.4033C88.0916 42.6754 77.4931 37.9163 78.3207 41.4715Z" fill="#F77F89"/>
<path fill-rule="evenodd" clip-rule="evenodd" d="M81.8384 45.2821C81.6046 43.3741 82.9778 38.8837 83.7625 38.2603C91.139 38.529 95.7181 33.2754 96.4624 31.8378C97.151 32.7519 97.6523 33.7929 97.9377 34.9012C98.1285 35.6322 97.9619 36.1454 96.7124 37.1935C96.3953 41.5011 92.4853 48.3402 81.8384 45.2821Z" fill="white"/>
<path d="M84.3483 38.7145C84.3483 38.7145 77.6301 33.2164 75.6792 32.9476" stroke="white" stroke-width="0.5" stroke-linecap="round" stroke-linejoin="round"/>
<path fill-rule="evenodd" clip-rule="evenodd" d="M89.8275 32.9557C89.8275 31.999 90.1392 31.2224 90.5235 31.2224C90.9078 31.2224 91.2195 31.999 91.2195 32.9557C91.2195 33.9123 90.9078 34.689 90.5235 34.689C90.1392 34.689 89.8275 33.9123 89.8275 32.9557Z" fill="#CB5D66"/>
<path d="M85.4071 100.397C82.8516 100.766 68.9477 100.164 64.3499 98.2719" stroke="#737999" stroke-width="0.5" stroke-linecap="round" stroke-linejoin="round"/>
<path d="M86.0708 84.3734C85.8908 79.1145 90.6768 62.0397 81.2177 55.0179" stroke="#737999" stroke-width="0.5" stroke-linecap="round" stroke-linejoin="round"/>
<path d="M86.0735 84.3439L81.2177 86.4238" stroke="#737999" stroke-width="0.5" stroke-linecap="round" stroke-linejoin="round"/>
<path d="M81.4299 83.8817L86.0869 84.2096" stroke="#737999" stroke-width="0.5" stroke-linecap="round" stroke-linejoin="round"/>
<path d="M82.1205 80.606L86.0922 84.1746" stroke="#737999" stroke-width="0.5" stroke-linecap="round" stroke-linejoin="round"/>
<path d="M107.598 95.316C107.867 91.7983 107.125 82.6483 104.642 73.4633" stroke="#737999" stroke-width="0.5" stroke-linecap="round" stroke-linejoin="round"/>
<path d="M116.625 91.7661C114.475 95.5605 109.369 99.6586 107.515 100.473" stroke="#737999" stroke-width="0.5" stroke-linecap="round" stroke-linejoin="round"/>
<path d="M101.678 103.869C101.453 102.51 100.641 97.4603 100.641 97.4603" stroke="#FF3274" stroke-width="0.5" stroke-linecap="round" stroke-linejoin="round"/>
<path d="M120.785 175.826L103.347 178.578" stroke="#FF3274" stroke-width="0.5" stroke-linecap="round" stroke-linejoin="round"/>
<path d="M115.789 147.263C115.48 147.298 115.17 147.315 114.859 147.314C112.802 147.315 110.815 146.561 109.275 145.196C107.735 143.832 106.749 141.95 106.502 139.907C106.255 137.865 106.765 135.802 107.936 134.11C109.106 132.418 110.856 131.213 112.855 130.723" stroke="#FF3274" stroke-width="0.5" stroke-linecap="round" stroke-linejoin="round"/>
<path d="M111.132 198.294L135.524 193.669" stroke="#4C4FD9" stroke-width="0.5" stroke-linecap="round" stroke-linejoin="round"/>
<path d="M109.181 192.992C110.008 192.668 110.901 192.55 111.784 192.65C112.666 192.749 113.511 193.063 114.244 193.563C114.978 194.063 115.578 194.735 115.993 195.52C116.408 196.306 116.625 197.18 116.625 198.068C116.626 198.542 116.565 199.013 116.445 199.471" stroke="#4C4FD9" stroke-width="0.5" stroke-linecap="round" stroke-linejoin="round"/>
<path d="M81.954 44.8789C81.1102 44.5591 77.7189 43.3768 75.9561 39.8242" stroke="white" stroke-width="0.5" stroke-linecap="round" stroke-linejoin="round"/>
<path fill-rule="evenodd" clip-rule="evenodd" d="M72.7125 37.1155C72.712 36.4121 72.9201 35.7244 73.3106 35.1393C73.701 34.5543 74.2562 34.0982 74.906 33.8288C75.5557 33.5593 76.2708 33.4887 76.9607 33.6258C77.6506 33.7629 78.2843 34.1016 78.7817 34.5989C79.279 35.0963 79.6177 35.73 79.7548 36.4199C79.8919 37.1098 79.8213 37.8249 79.5518 38.4746C79.2824 39.1244 78.8263 39.6796 78.2413 40.07C77.6562 40.4605 76.9685 40.6686 76.2651 40.6681C75.3231 40.6674 74.4199 40.2929 73.7538 39.6268C73.0877 38.9607 72.7132 38.0575 72.7125 37.1155Z" fill="#F77F89"/>
<path d="M79.6644 38.1555C79.4412 38.883 78.9906 39.5196 78.3787 39.9719C77.7668 40.4242 77.0259 40.6682 76.265 40.6681" stroke="#CB5D66" stroke-width="0.5" stroke-linecap="round" stroke-linejoin="round"/>
<path d="M73.4623 34.9307C73.9752 34.2719 74.7041 33.8152 75.5207 33.6409" stroke="#CB5D66" stroke-width="0.5" stroke-linecap="round" stroke-linejoin="round"/>
<path fill-rule="evenodd" clip-rule="evenodd" d="M81.9298 19.3045C80.4082 19.6549 78.9705 20.3017 77.6989 21.2078C76.4273 22.1139 75.3467 23.2617 74.5187 24.5855C73.6907 25.9093 73.1316 27.3833 72.8733 28.9232C72.6151 30.4631 72.6627 32.0388 73.0135 33.5603L96.1856 28.2208C95.8352 26.6992 95.1884 25.2615 94.2823 23.9899C93.3762 22.7183 92.2284 21.6377 90.9046 20.8097C89.5808 19.9817 88.1068 19.4226 86.5669 19.1644C85.027 18.9061 83.4513 18.9537 81.9298 19.3045Z" fill="#F2E283"/>
<path fill-rule="evenodd" clip-rule="evenodd" d="M87.3767 26.5035L104.121 22.6446C105.508 22.3222 106.808 22.8623 107.045 23.8432C107.27 24.8267 106.33 25.8828 104.941 26.2052L88.1964 30.0641C86.807 30.3839 85.5091 29.8465 85.2726 28.8629C85.0442 27.8794 85.9874 26.8233 87.3767 26.5035Z" fill="#F2E283"/>
<path d="M70.0387 123.645C70.7542 122.886 71.3957 122.061 71.9547 121.181" stroke="#CB5D66" stroke-width="0.5" stroke-linecap="round" stroke-linejoin="round"/>
<path d="M73.0054 125.254C74.134 124.163 75.7867 121.86 76.6305 120.479" stroke="#CB5D66" stroke-width="0.5" stroke-linecap="round" stroke-linejoin="round"/>
<path d="M120.489 106.764C122.182 105.358 124.824 108.236 126.025 109.397" stroke="#CB5D66" stroke-width="0.5" stroke-linecap="round" stroke-linejoin="round"/>
<path d="M76.8804 38.5612C76.6866 38.6469 76.477 38.6908 76.2651 38.6902C76.029 38.6905 75.796 38.6363 75.5843 38.5318C75.3727 38.4272 75.188 38.2751 75.0448 38.0874C74.9016 37.8997 74.8038 37.6815 74.7589 37.4497C74.714 37.2179 74.7233 36.9789 74.7861 36.7513C74.8488 36.5237 74.9633 36.3137 75.1207 36.1377C75.278 35.9616 75.4739 35.8244 75.693 35.7366C75.9122 35.6488 76.1487 35.6128 76.384 35.6315C76.6194 35.6502 76.8472 35.7231 77.0497 35.8444" stroke="#CB5D66" stroke-width="0.5" stroke-linecap="round" stroke-linejoin="round"/>
<path d="M87.5891 19.3797C85.9288 18.9498 84.1952 18.8841 82.5071 19.1869C80.819 19.4897 79.2164 20.1539 77.809 21.1341C76.4016 22.1142 75.2228 23.387 74.3533 24.8653C73.4838 26.3436 72.9443 27.9924 72.7716 29.6987" stroke="#FF3274" stroke-width="0.5" stroke-linecap="round" stroke-linejoin="round"/>
<path d="M96.4624 31.8378C97.1509 32.7519 97.6523 33.7929 97.9377 34.9012C98.1285 35.6322 97.9619 36.1454 96.7123 37.1935C96.4651 40.5337 94.06 45.3949 88.0298 45.9861" stroke="#C9C9C9" stroke-width="0.5" stroke-linecap="round" stroke-linejoin="round"/>
<path d="M28.5469 85.9453L5.98828 81.9023C7.86328 74.7148 11.457 69.207 16.7695 65.3789C22.1211 61.5508 29.6797 59.6367 39.4453 59.6367C50.6562 59.6367 58.7617 61.7266 63.7617 65.9062C68.7617 70.0859 71.2617 75.3398 71.2617 81.668C71.2617 85.3789 70.2461 88.7383 68.2148 91.7461C66.1836 94.7539 63.1172 97.3906 59.0156 99.6562C62.3359 100.477 64.875 101.434 66.6328 102.527C69.4844 104.285 71.6914 106.609 73.2539 109.5C74.8555 112.352 75.6562 115.77 75.6562 119.754C75.6562 124.754 74.3477 129.559 71.7305 134.168C69.1133 138.738 65.3438 142.273 60.4219 144.773C55.5 147.234 49.0352 148.465 41.0273 148.465C33.2148 148.465 27.043 147.547 22.5117 145.711C18.0195 143.875 14.3086 141.199 11.3789 137.684C8.48828 134.129 6.26172 129.676 4.69922 124.324L28.5469 121.16C29.4844 125.965 30.9297 129.305 32.8828 131.18C34.875 133.016 37.3945 133.934 40.4414 133.934C43.6445 133.934 46.3008 132.762 48.4102 130.418C50.5586 128.074 51.6328 124.949 51.6328 121.043C51.6328 117.059 50.5977 113.973 48.5273 111.785C46.4961 109.598 43.7227 108.504 40.207 108.504C38.332 108.504 35.7539 108.973 32.4727 109.91L33.7031 92.8594C35.0312 93.0547 36.0664 93.1523 36.8086 93.1523C39.9336 93.1523 42.5312 92.1562 44.6016 90.1641C46.7109 88.1719 47.7656 85.8086 47.7656 83.0742C47.7656 80.457 46.9844 78.3672 45.4219 76.8047C43.8594 75.2422 41.7109 74.4609 38.9766 74.4609C36.1641 74.4609 33.8789 75.3203 32.1211 77.0391C30.3633 78.7188 29.1719 81.6875 28.5469 85.9453Z" fill="#191919"/>
</svg>
