<svg width="242" height="220" viewBox="0 0 242 220" fill="none" xmlns="http://www.w3.org/2000/svg">
<path fill-rule="evenodd" clip-rule="evenodd" d="M105.41 90.8877C105.41 88.3841 109.362 86.3591 114.233 86.3591C119.104 86.3591 123.055 88.3841 123.055 90.8877C123.055 93.3913 119.104 95.4126 114.233 95.4126C109.362 95.4126 105.41 93.395 105.41 90.8877Z" fill="#C4C4C4"/>
<path fill-rule="evenodd" clip-rule="evenodd" d="M91.6245 196.116L94.3019 204.709L105.41 202.18L104.321 191.252L91.6245 196.116Z" fill="#FF3274"/>
<path fill-rule="evenodd" clip-rule="evenodd" d="M62.1403 91.9004H231.083C231.516 91.9004 231.931 92.0718 232.237 92.377C232.544 92.6822 232.716 93.0961 232.716 93.5277V96.4731C232.716 96.9047 232.544 97.3187 232.237 97.6238C231.931 97.929 231.516 98.1005 231.083 98.1005H62.1403C61.7074 98.1005 61.2922 97.929 60.9861 97.6238C60.68 97.3187 60.5081 96.9047 60.5081 96.4731V93.5277C60.5081 93.0961 60.68 92.6822 60.9861 92.377C61.2922 92.0718 61.7074 91.9004 62.1403 91.9004Z" fill="#E6E6E6"/>
<path d="M85.1397 98.2476L50.9619 202.743" stroke="#E6E6E6" stroke-linecap="round" stroke-linejoin="round"/>
<path d="M112.877 98.2476L78.7144 202.743" stroke="#E6E6E6" stroke-linecap="round" stroke-linejoin="round"/>
<path d="M112.877 98.2476L147.037 202.743" stroke="#E6E6E6" stroke-linecap="round" stroke-linejoin="round"/>
<path d="M85.1396 98.2476L119.299 202.743" stroke="#E6E6E6" stroke-linecap="round" stroke-linejoin="round"/>
<path fill-rule="evenodd" clip-rule="evenodd" d="M54.5732 185.638L50.9763 193.738L60.9324 197.99L65.3639 189.802L54.5732 185.638Z" fill="#FF3274"/>
<path fill-rule="evenodd" clip-rule="evenodd" d="M50.7478 192.99L61.2725 197.534C61.2725 197.534 74.3897 209.787 80.4424 212.773C80.4239 215.493 80.0731 216.756 77.9755 217.533C77.0375 217.879 60.0834 211.112 60.0834 211.112L57.2399 208.071L46.272 203.042L50.7478 192.99Z" fill="#6A3416"/>
<path d="M57.1035 190.855C57.1035 190.591 57.1821 190.332 57.3294 190.113C57.4767 189.893 57.6861 189.721 57.931 189.62C58.176 189.519 58.4455 189.493 58.7056 189.544C58.9656 189.596 59.2045 189.723 59.3919 189.91C59.5794 190.097 59.7071 190.335 59.7588 190.594C59.8105 190.854 59.784 191.122 59.6825 191.366C59.5811 191.611 59.4092 191.819 59.1888 191.966C58.9683 192.113 58.7092 192.192 58.444 192.192C58.2679 192.192 58.0933 192.158 57.9305 192.091C57.7676 192.024 57.6196 191.925 57.4951 191.801C57.3705 191.677 57.2718 191.529 57.2046 191.367C57.1374 191.205 57.103 191.031 57.1035 190.855V190.855Z" stroke="white" stroke-linecap="round" stroke-linejoin="round"/>
<path d="M52.0327 192.596C52.0327 192.331 52.1116 192.072 52.2595 191.852C52.4074 191.631 52.6175 191.459 52.8634 191.358C53.1092 191.257 53.3797 191.23 53.6405 191.282C53.9014 191.334 54.1409 191.462 54.3287 191.65C54.5166 191.838 54.6443 192.077 54.6958 192.337C54.7472 192.598 54.7201 192.867 54.6178 193.112C54.5155 193.357 54.3426 193.566 54.1211 193.713C53.8995 193.859 53.6393 193.937 53.3732 193.937C53.0174 193.936 52.6764 193.794 52.4251 193.543C52.1738 193.292 52.0327 192.951 52.0327 192.596V192.596Z" stroke="white" stroke-linecap="round" stroke-linejoin="round"/>
<path d="M58.9827 194.949C58.9827 194.685 59.0613 194.426 59.2086 194.207C59.3559 193.987 59.5652 193.815 59.8102 193.714C60.0551 193.613 60.3247 193.587 60.5847 193.638C60.8447 193.69 61.0836 193.817 61.2711 194.004C61.4586 194.191 61.5862 194.429 61.638 194.688C61.6897 194.948 61.6631 195.216 61.5617 195.46C61.4602 195.705 61.2884 195.913 61.0679 196.06C60.8475 196.207 60.5883 196.285 60.3232 196.285C59.9677 196.285 59.6267 196.145 59.3753 195.894C59.1239 195.643 58.9827 195.303 58.9827 194.949Z" stroke="white" stroke-linecap="round" stroke-linejoin="round"/>
<path fill-rule="evenodd" clip-rule="evenodd" d="M45.4447 201.109L56.18 205.869C56.459 205.991 56.6785 206.217 56.7906 206.499C56.9027 206.781 56.8983 207.096 56.7782 207.375L55.8402 209.477C55.7774 209.614 55.6881 209.737 55.5776 209.839C55.467 209.941 55.3374 210.02 55.196 210.072C55.0547 210.124 54.9044 210.148 54.7539 210.142C54.6034 210.136 54.4555 210.1 54.3188 210.037L43.5761 205.277C43.4378 205.217 43.3125 205.131 43.2075 205.024C43.1026 204.916 43.0199 204.789 42.9643 204.649C42.9088 204.51 42.8814 204.361 42.8837 204.21C42.886 204.06 42.918 203.912 42.9779 203.774L43.9122 201.672C43.9754 201.535 44.0653 201.411 44.1766 201.308C44.288 201.205 44.4186 201.125 44.561 201.073C44.7034 201.021 44.8548 200.997 45.0065 201.003C45.1581 201.009 45.307 201.045 45.4447 201.109Z" fill="#3C1B09"/>
<path fill-rule="evenodd" clip-rule="evenodd" d="M27.287 108.122C51.7377 101.256 86.8129 105.059 94.3796 115.534C97.0828 119.274 96.167 125.128 95.4875 127.334C94.808 129.539 66.1954 190.741 66.1954 190.741L53.3663 185.877L65.9738 136.174C65.9738 136.174 24.2477 108.969 27.287 108.122Z" fill="#C4C4C4"/>
<path d="M57.9077 187.596L72.6756 140.153" stroke="#8D8D8D" stroke-linecap="round" stroke-linejoin="round"/>
<path d="M54.6548 180.774L68.4219 185.929" stroke="#8D8D8D" stroke-linecap="round" stroke-linejoin="round"/>
<path fill-rule="evenodd" clip-rule="evenodd" d="M94.0801 203.918L105.107 200.781C105.107 200.781 123.044 201.97 129.624 200.453C131.341 202.57 131.884 203.767 130.732 205.696C130.226 206.554 112.81 212.036 112.81 212.036L108.678 211.48L97.0122 214.525L94.0801 203.918Z" fill="#6A3416"/>
<path fill-rule="evenodd" clip-rule="evenodd" d="M95.1403 213.553L106.47 210.449C106.615 210.408 106.766 210.395 106.915 210.412C107.065 210.428 107.21 210.474 107.341 210.547C107.473 210.619 107.589 210.717 107.683 210.834C107.777 210.951 107.847 211.086 107.888 211.23L108.501 213.439C108.54 213.584 108.549 213.736 108.528 213.885C108.508 214.033 108.458 214.177 108.382 214.306C108.306 214.436 108.205 214.549 108.084 214.64C107.964 214.731 107.827 214.797 107.681 214.834L96.3515 217.938C96.207 217.98 96.0557 217.993 95.9062 217.976C95.7567 217.959 95.6119 217.913 95.4802 217.841C95.3485 217.768 95.2325 217.671 95.1386 217.553C95.0448 217.436 94.9751 217.302 94.9335 217.158L94.3204 214.949C94.2821 214.803 94.2729 214.652 94.2933 214.503C94.3138 214.354 94.3635 214.211 94.4397 214.081C94.5159 213.951 94.617 213.838 94.7372 213.748C94.8574 213.657 94.9944 213.591 95.1403 213.553Z" fill="#3C1B09"/>
<path d="M99.0066 200.071C99.0059 199.805 99.0842 199.546 99.2316 199.325C99.379 199.104 99.5889 198.931 99.8347 198.83C100.08 198.728 100.351 198.701 100.612 198.752C100.873 198.804 101.113 198.932 101.301 199.119C101.49 199.307 101.618 199.546 101.669 199.806C101.721 200.067 101.694 200.336 101.592 200.582C101.49 200.827 101.317 201.036 101.095 201.183C100.874 201.33 100.613 201.408 100.347 201.407C99.9916 201.407 99.6506 201.266 99.3992 201.016C99.1478 200.765 99.0066 200.425 99.0066 200.071Z" stroke="white" stroke-linecap="round" stroke-linejoin="round"/>
<path d="M101.411 195.748C101.41 195.482 101.488 195.223 101.636 195.002C101.783 194.781 101.993 194.608 102.239 194.507C102.485 194.405 102.755 194.378 103.016 194.429C103.277 194.481 103.517 194.609 103.705 194.796C103.894 194.984 104.022 195.223 104.073 195.483C104.125 195.744 104.098 196.013 103.996 196.259C103.894 196.504 103.721 196.713 103.499 196.86C103.278 197.007 103.017 197.085 102.751 197.084C102.396 197.083 102.056 196.942 101.804 196.692C101.553 196.441 101.412 196.102 101.411 195.748V195.748Z" stroke="white" stroke-linecap="round" stroke-linejoin="round"/>
<path d="M94.0801 199.117C94.0801 198.852 94.1587 198.594 94.306 198.374C94.4533 198.154 94.6627 197.983 94.9076 197.882C95.1526 197.781 95.4221 197.754 95.6821 197.806C95.9422 197.858 96.181 197.985 96.3685 198.172C96.556 198.359 96.6836 198.597 96.7354 198.856C96.7871 199.115 96.7605 199.384 96.6591 199.628C96.5576 199.872 96.3858 200.081 96.1653 200.228C95.9449 200.375 95.6857 200.453 95.4206 200.453C95.0651 200.453 94.7241 200.312 94.4727 200.062C94.2213 199.811 94.0801 199.471 94.0801 199.117Z" stroke="white" stroke-linecap="round" stroke-linejoin="round"/>
<path fill-rule="evenodd" clip-rule="evenodd" d="M7.24917 138.177H63.3075C65.23 138.177 67.0739 138.938 68.4334 140.293C69.7929 141.649 70.5566 143.487 70.5566 145.404C70.5566 147.321 69.7929 149.159 68.4334 150.514C67.0739 151.87 65.23 152.631 63.3075 152.631H7.24917C5.32657 152.631 3.48272 151.87 2.12323 150.514C0.76375 149.159 0 147.321 0 145.404H0C0 143.487 0.76375 141.649 2.12323 140.293C3.48272 138.938 5.32657 138.177 7.24917 138.177Z" fill="#E6E6E6"/>
<path fill-rule="evenodd" clip-rule="evenodd" d="M32.9292 147.694H37.6266C37.9987 147.694 38.3557 147.841 38.6188 148.103C38.882 148.366 39.0299 148.722 39.0299 149.093V200.858C39.0299 201.229 38.882 201.585 38.6188 201.848C38.3557 202.11 37.9987 202.257 37.6266 202.257H32.9292C32.557 202.257 32.2001 202.11 31.9369 201.848C31.6737 201.585 31.5259 201.229 31.5259 200.858V149.093C31.5259 148.722 31.6737 148.366 31.9369 148.103C32.2001 147.841 32.557 147.694 32.9292 147.694Z" fill="#E6E6E6"/>
<path fill-rule="evenodd" clip-rule="evenodd" d="M31.039 185.638H39.5326C40.1458 185.638 40.7338 185.881 41.1673 186.313C41.6008 186.745 41.8444 187.332 41.8444 187.943V200.439C41.8444 200.743 41.784 201.044 41.6667 201.325C41.5493 201.606 41.3774 201.861 41.1608 202.075C40.9442 202.289 40.6871 202.459 40.4045 202.573C40.1219 202.688 39.8193 202.746 39.5142 202.743H31.0205C30.4074 202.743 29.8194 202.501 29.3858 202.068C28.9523 201.636 28.7087 201.05 28.7087 200.439V187.943C28.7087 187.639 28.7691 187.337 28.8865 187.057C29.0038 186.776 29.1757 186.521 29.3924 186.307C29.609 186.092 29.866 185.923 30.1486 185.808C30.4312 185.693 30.7338 185.636 31.039 185.638Z" fill="#E6E6E6"/>
<path d="M7.13452 211.642V209.201C7.13452 207.488 7.81696 205.846 9.03169 204.635C10.2464 203.424 11.894 202.743 13.6119 202.743H35.2781" stroke="#E6E6E6" stroke-linecap="round" stroke-linejoin="round"/>
<path d="M63.3597 211.642V209.201C63.3592 208.352 63.191 207.512 62.8646 206.728C62.5382 205.944 62.0601 205.232 61.4575 204.632C60.855 204.032 60.1398 203.557 59.3529 203.233C58.566 202.909 57.7227 202.742 56.8713 202.743H35.2124" stroke="#E6E6E6" stroke-linecap="round" stroke-linejoin="round"/>
<path d="M24.6611 211.642V208.697C24.6611 205.409 26.3783 202.743 28.4944 202.743H42.0621C44.1781 202.743 45.8953 205.409 45.8953 208.697V211.642" stroke="#E6E6E6" stroke-linecap="round" stroke-linejoin="round"/>
<path d="M3.58545 215.184C3.58545 214.484 3.79359 213.8 4.18354 213.218C4.5735 212.637 5.12776 212.183 5.77623 211.915C6.4247 211.648 7.13827 211.577 7.82668 211.714C8.5151 211.851 9.14745 212.187 9.64377 212.682C10.1401 213.177 10.4781 213.808 10.615 214.494C10.752 215.18 10.6817 215.892 10.4131 216.538C10.1445 217.185 9.68959 217.737 9.10598 218.126C8.52237 218.515 7.83623 218.722 7.13433 218.722C6.19341 218.721 5.2913 218.348 4.62597 217.685C3.96064 217.022 3.58643 216.122 3.58545 215.184V215.184Z" stroke="#E6E6E6" stroke-linecap="round" stroke-linejoin="round"/>
<path d="M21.1121 215.184C21.1121 214.484 21.3202 213.8 21.7102 213.218C22.1001 212.637 22.6544 212.183 23.3028 211.915C23.9513 211.648 24.6649 211.577 25.3533 211.714C26.0417 211.851 26.6741 212.187 27.1704 212.682C27.6667 213.177 28.0047 213.808 28.1416 214.494C28.2786 215.18 28.2083 215.892 27.9397 216.538C27.6711 217.185 27.2162 217.737 26.6326 218.126C26.049 218.515 25.3628 218.722 24.6609 218.722C23.72 218.721 22.8179 218.348 22.1526 217.685C21.4873 217.022 21.113 216.122 21.1121 215.184V215.184Z" stroke="#E6E6E6" stroke-linecap="round" stroke-linejoin="round"/>
<path d="M45.8951 211.642C46.5979 211.642 47.2851 211.849 47.8698 212.237C48.4545 212.626 48.9104 213.179 49.1799 213.826C49.4493 214.473 49.5202 215.186 49.3835 215.873C49.2469 216.56 48.9088 217.192 48.4121 217.687C47.9154 218.183 47.2824 218.521 46.5932 218.658C45.904 218.795 45.1895 218.725 44.5401 218.457C43.8907 218.189 43.3357 217.735 42.9452 217.152C42.5546 216.57 42.3462 215.885 42.3462 215.184C42.3462 214.245 42.72 213.345 43.3854 212.681C44.0508 212.017 44.9535 211.643 45.8951 211.642" stroke="#E6E6E6" stroke-linecap="round" stroke-linejoin="round"/>
<path d="M59.8252 215.184C59.8252 214.484 60.0333 213.8 60.4233 213.218C60.8132 212.637 61.3675 212.183 62.016 211.915C62.6645 211.648 63.378 211.577 64.0664 211.714C64.7548 211.851 65.3872 212.187 65.8835 212.682C66.3798 213.177 66.7178 213.808 66.8548 214.494C66.9917 215.18 66.9214 215.892 66.6528 216.538C66.3842 217.185 65.9293 217.737 65.3457 218.126C64.7621 218.515 64.076 218.722 63.3741 218.722C62.4332 218.721 61.531 218.348 60.8657 217.685C60.2004 217.022 59.8262 216.122 59.8252 215.184V215.184Z" stroke="#E6E6E6" stroke-linecap="round" stroke-linejoin="round"/>
<path fill-rule="evenodd" clip-rule="evenodd" d="M9.35027 93.7154C-13.0176 140.297 32.1281 141.552 47.9706 141.321C63.8132 141.089 67.9825 139.899 72.2699 138.865C73.64 143.003 90.0624 196.595 90.0624 196.595L104.483 192.25C104.483 192.25 93.4598 124.167 90.9708 119.569C84.1352 106.926 43.7016 106.241 38.587 106.546C33.4723 106.852 12.1864 87.8098 9.35027 93.7154Z" fill="#C4C4C4"/>
<path d="M10.7464 100.081C-4.5755 138.206 61.136 135.909 75.5088 131.542C77.6581 137.672 95.4505 194.651 95.4505 194.651" stroke="#8D8D8D" stroke-linecap="round" stroke-linejoin="round"/>
<path d="M93.8403 131.612C89.217 130.663 85.0508 128.185 82.0176 124.58C78.9843 120.974 77.2619 116.453 77.1299 111.749" stroke="#8D8D8D" stroke-linecap="round" stroke-linejoin="round"/>
<path d="M65.3904 140.264C67.7077 139.924 70.0044 139.457 72.2703 138.865C72.839 140.58 75.9964 150.805 79.4936 162.181" stroke="#8D8D8D" stroke-linecap="round" stroke-linejoin="round"/>
<path d="M93.7335 130.868C92.5296 124.878 91.5177 120.607 90.9712 119.569C84.5455 107.691 48.4437 106.366 39.8799 106.506" stroke="#8D8D8D" stroke-linecap="round" stroke-linejoin="round"/>
<path d="M103.793 188.039L88.8218 192.549" stroke="#8D8D8D" stroke-linecap="round" stroke-linejoin="round"/>
<path fill-rule="evenodd" clip-rule="evenodd" d="M36.4377 21.4829C36.4377 19.9739 36.8866 18.4988 37.7275 17.2442C38.5685 15.9897 39.7637 15.0119 41.1621 14.4346C42.5605 13.8573 44.0992 13.7065 45.5836 14.0011C47.068 14.2958 48.4314 15.0227 49.5013 16.0899C50.5713 17.1572 51.2997 18.5168 51.5946 19.9968C51.8894 21.4769 51.7373 23.0109 51.1576 24.4048C50.5779 25.7986 49.5966 26.9898 48.3378 27.8276C47.079 28.6654 45.5993 29.1122 44.0858 29.1115C43.0811 29.1115 42.0863 28.9141 41.1581 28.5307C40.23 28.1473 39.3867 27.5853 38.6765 26.8769C37.9663 26.1684 37.403 25.3274 37.0189 24.4019C36.6347 23.4764 36.4373 22.4845 36.4377 21.4829Z" fill="#6A3416"/>
<path fill-rule="evenodd" clip-rule="evenodd" d="M108.748 84.2831C110.008 83.2522 113.42 80.7375 114.513 80.7523C115.606 80.767 118.915 83.867 118.989 84.6807C119.063 85.4944 118.01 86.7793 117.382 86.8713C116.755 86.9634 114.735 85.0305 114.291 85.2035C113.848 85.3765 112.873 86.4074 112.589 86.864C112.305 87.3205 107.493 85.2955 108.748 84.2831Z" fill="#F77F89"/>
<path fill-rule="evenodd" clip-rule="evenodd" d="M63.6213 64.0698L70.4215 72.4252L80.1766 83.053L66.8379 82.5228L57.1218 69.7103L63.6213 64.0698Z" fill="#F77F89"/>
<path fill-rule="evenodd" clip-rule="evenodd" d="M37.3429 36.2986C12.811 36.328 4.61271 93.7341 7.17559 97.6699C9.05528 100.556 31.3087 109.043 38.9346 106.436C41.6267 105.516 48.6321 91.1752 52.5983 76.7059C56.8267 73.2451 64.8292 66.6915 66.1328 65.4287C65.7635 62.6563 59.3341 51.4858 52.6758 46.5376C50.3752 41.2984 46.1062 36.2986 37.3429 36.2986Z" fill="#0097F7"/>
<path fill-rule="evenodd" clip-rule="evenodd" d="M43.6873 75.3029C43.6873 75.3029 55.3975 90.0299 58.4773 91.2265C61.5572 92.423 94.8229 92.0401 97.2528 91.7567C99.6827 91.4732 99.2396 93.3214 101.437 93.4392C103.712 93.5644 105.023 91.5578 105.333 90.5454C106.721 92.0843 109.17 94.4517 110.776 93.627C111.914 93.0379 111.928 92.5225 111.146 91.7088C112.253 92.3457 114.255 93.2809 115.064 92.6513C116.364 91.6425 116.485 90.7 116.046 89.9158C114.691 87.4895 110.326 84.0544 109.288 83.6568C108.091 83.1855 104.447 84.4815 102.692 84.5883C94.7416 85.0779 74.6929 80.1481 68.1158 79.8498C67.1483 78.009 57.122 65.9217 56.3465 64.7141C53.5953 67.0594 43.6873 75.3029 43.6873 75.3029Z" fill="#F77F89"/>
<path fill-rule="evenodd" clip-rule="evenodd" d="M40.4187 24.491C40.418 22.1999 41.0988 19.9599 42.3751 18.0546C43.6514 16.1492 45.4659 14.6641 47.5889 13.7869C49.7119 12.9098 52.0482 12.6801 54.3022 13.1269C56.5562 13.5737 58.6266 14.677 60.2517 16.2971C61.8767 17.9172 62.9832 19.9814 63.4314 22.2286C63.8796 24.4758 63.6492 26.805 62.7694 28.9216C61.8896 31.0382 60.3999 32.8472 58.4888 34.1197C56.5777 35.3921 54.331 36.0709 52.0329 36.0702C48.9529 36.0692 45.9994 34.8489 43.8215 32.6777C41.6436 30.5064 40.4197 27.5617 40.4187 24.491Z" fill="#F77F89"/>
<path fill-rule="evenodd" clip-rule="evenodd" d="M41.9769 21.969C42.0249 23.7694 38.2434 35.1534 36.7515 37.333C37.49 39.0745 44.7171 43.441 48.037 42.5096C48.4063 40.3005 49.6434 35.8603 50.4078 34.8736C51.1722 33.8869 41.9289 20.1539 41.9769 21.969Z" fill="#F77F89"/>
<path fill-rule="evenodd" clip-rule="evenodd" d="M55.2526 0.0771564C54.1485 0.0805102 53.0584 0.323298 52.0579 0.788677C51.0573 1.25406 50.1703 1.93089 49.4584 2.77221C48.5032 2.41311 47.4916 2.22612 46.4708 2.21994C45.1026 2.20053 43.7492 2.50466 42.5216 3.10739C41.2941 3.71013 40.2272 4.59432 39.4085 5.68749C38.5899 6.78065 38.0427 8.05167 37.8119 9.39637C37.581 10.7411 37.6731 12.1212 38.0806 13.4235C37.5645 13.8969 37.1524 14.4717 36.8702 15.1117C36.588 15.7517 36.4419 16.443 36.4409 17.1421C36.4492 18.3451 36.8778 19.5075 37.6529 20.4295C38.428 21.3514 39.5012 21.9752 40.6878 22.1935C40.7468 21.91 40.7468 21.7112 40.8392 21.3872C41.0903 20.5257 44.8497 18.9499 45.2706 19.2334C45.602 19.4704 45.9793 19.6359 46.3785 19.7194C46.413 19.7214 46.4475 19.7214 46.4819 19.7194C48.0432 19.7154 49.575 19.2951 50.9185 18.502C52.262 17.709 53.3682 16.5721 54.1225 15.2092C54.4996 15.2753 54.881 15.3134 55.2636 15.3233C55.2636 16.8321 55.7124 18.307 56.5532 19.5616C57.394 20.8161 58.589 21.7939 59.9872 22.3712C61.3853 22.9486 62.9238 23.0997 64.4081 22.8054C65.8924 22.511 67.2558 21.7845 68.3259 20.7176C69.396 19.6507 70.1248 18.2914 70.42 16.8116C70.7152 15.3318 70.5637 13.7979 69.9846 12.404C69.4054 11.01 68.4247 9.81861 67.1664 8.98037C65.9081 8.14213 64.4287 7.69472 62.9153 7.69472C62.9139 6.69292 62.7145 5.70121 62.3287 4.77622C61.9428 3.85123 61.3779 3.01107 60.6664 2.30371C59.9548 1.59636 59.1105 1.03565 58.1816 0.65362C57.2527 0.271587 56.2574 0.0757049 55.2526 0.0771564Z" fill="#6A3416"/>
<path fill-rule="evenodd" clip-rule="evenodd" d="M37.3394 17.4733C37.3416 16.5869 37.6072 15.721 38.1028 14.985C38.5984 14.249 39.3016 13.6759 40.1237 13.3382C40.9458 13.0005 41.8498 12.9132 42.7216 13.0875C43.5934 13.2618 44.3938 13.6898 45.0218 14.3173C45.6497 14.9449 46.077 15.744 46.2496 16.6136C46.4223 17.4832 46.3326 18.3843 45.9918 19.203C45.6511 20.0218 45.0745 20.7215 44.3351 21.2138C43.5957 21.706 42.7265 21.9688 41.8373 21.9688C41.2457 21.9688 40.6599 21.8524 40.1135 21.6264C39.567 21.4003 39.0707 21.069 38.6529 20.6514C38.235 20.2338 37.904 19.7382 37.6786 19.1928C37.4532 18.6475 37.3379 18.0632 37.3394 17.4733Z" fill="#F77F89"/>
<path d="M14.247 95.4129C13.7632 88.2924 20.5877 61.8389 25.695 53.9673" stroke="#E6E6E6" stroke-linecap="round" stroke-linejoin="round"/>
<path d="M29.3699 60.2296C30.559 62.678 36.4418 73.5207 41.4272 77.3461C43.329 75.5494 57.0371 63.904 57.0371 63.904C55.2867 60.6604 46.8705 50.4913 44.1415 47.9988" stroke="#E6E6E6" stroke-linecap="round" stroke-linejoin="round"/>
<path d="M38.8457 74.8723L55.3234 61.2976" stroke="#E6E6E6" stroke-linecap="round" stroke-linejoin="round"/>
<path d="M50.7957 43.1648C50.6816 43.5286 50.5096 43.8717 50.2861 44.181C48.3289 46.9054 42.8117 46.6072 37.9629 43.5182" stroke="#E6E6E6" stroke-linecap="round" stroke-linejoin="round"/>
<path d="M52.7234 46.5632C53.6577 48.9858 54.9391 54.6373 54.3963 60.0458" stroke="#E6E6E6" stroke-linecap="round" stroke-linejoin="round"/>
<path d="M58.791 67.8547L64.9951 62.3652" stroke="#E6E6E6" stroke-linecap="round" stroke-linejoin="round"/>
<path d="M31.759 90.4496C33.8086 90.1293 44.9981 90.3576 42.9301 91.0571C40.862 91.7567 36.9919 92.2537 38.7165 92.6587C40.373 93.0457 42.0514 93.3334 43.7425 93.5202" stroke="#E6E6E6" stroke-linecap="round" stroke-linejoin="round"/>
<path d="M58.1926 24.7964C58.0781 25.8162 58.3033 28.11 59.0752 29.1114" stroke="#B5545C" stroke-linecap="round" stroke-linejoin="round"/>
<path fill-rule="evenodd" clip-rule="evenodd" d="M51.9662 23.4419C52.3355 22.5693 53.0741 22.0428 53.5874 22.2674C54.1007 22.492 54.2041 23.3719 53.8237 24.2519C53.4433 25.1318 52.7158 25.6509 52.2025 25.4263C51.6892 25.2018 51.5821 24.3181 51.9662 23.4419Z" fill="#B5545C"/>
<path fill-rule="evenodd" clip-rule="evenodd" d="M60.7369 25.4336C61.1062 24.561 61.8448 24.0345 62.3581 24.2554C62.8714 24.4763 62.9748 25.36 62.5945 26.2399C62.2141 27.1198 61.4866 27.639 60.9733 27.4144C60.46 27.1898 60.3529 26.3025 60.7369 25.4336Z" fill="#B5545C"/>
<path d="M54 33C53 31 49.3003 28.5925 49.3003 28.5925" stroke="#B5545C" stroke-linecap="round" stroke-linejoin="round"/>
<path d="M49.8948 35.8749C48.3535 35.5867 46.8867 34.9906 45.5825 34.1225C44.2783 33.2544 43.1637 32.1322 42.3059 30.8235" stroke="#B5545C" stroke-linecap="round" stroke-linejoin="round"/>
<path d="M43.4062 21.6746C42.9046 21.8629 42.3728 21.959 41.8368 21.9581C41.4273 21.958 41.0198 21.9022 40.6255 21.7924" stroke="#B5545C" stroke-linecap="round" stroke-linejoin="round"/>
<path d="M40.9693 20.1759C40.4955 20.0475 40.0671 19.7895 39.7325 19.4312C39.3979 19.0728 39.1706 18.6283 39.0761 18.1479C38.9816 17.6674 39.0237 17.1702 39.1977 16.7124C39.3717 16.2546 39.6707 15.8545 40.0608 15.5571C40.4509 15.2598 40.9167 15.0772 41.4054 15.0299C41.8942 14.9826 42.3865 15.0724 42.8267 15.2894C43.2669 15.5063 43.6375 15.8417 43.8966 16.2576C44.1557 16.6734 44.293 17.1533 44.2929 17.6428" stroke="#B5545C" stroke-linecap="round" stroke-linejoin="round"/>
<path d="M80.5056 81.7203L68.2194 79.85L60.5935 70.0859" stroke="#B5545C" stroke-linecap="round" stroke-linejoin="round"/>
<path d="M109.528 83.771L112.911 86.3482" stroke="#B5545C" stroke-linecap="round" stroke-linejoin="round"/>
<path d="M111.097 91.5542L108.571 89.2273" stroke="#B5545C" stroke-linecap="round" stroke-linejoin="round"/>
<path d="M179.549 98.2476L145.385 202.743" stroke="#E6E6E6" stroke-linecap="round" stroke-linejoin="round"/>
<path d="M207.286 98.2476L173.123 202.743" stroke="#E6E6E6" stroke-linecap="round" stroke-linejoin="round"/>
<path d="M207.286 98.2476L241.446 202.743" stroke="#E6E6E6" stroke-linecap="round" stroke-linejoin="round"/>
<path d="M179.549 98.2476L213.708 202.743" stroke="#E6E6E6" stroke-linecap="round" stroke-linejoin="round"/>
<path fill-rule="evenodd" clip-rule="evenodd" d="M120.389 30.2163H173.341C174.437 30.2163 175.488 30.6504 176.263 31.423C177.038 32.1956 177.474 33.2435 177.474 34.3362V77.9319C177.474 79.0246 177.038 80.0725 176.263 80.8451C175.488 81.6178 174.437 82.0518 173.341 82.0518H120.389C119.294 82.0499 118.245 81.615 117.471 80.8425C116.698 80.0701 116.264 79.0233 116.264 77.9319V34.3362C116.264 33.2448 116.698 32.198 117.471 31.4256C118.245 30.6532 119.294 30.2183 120.389 30.2163Z" fill="#E6E6E6"/>
<path fill-rule="evenodd" clip-rule="evenodd" d="M120.388 30.2124C119.846 30.2119 119.309 30.318 118.807 30.5247C118.306 30.7313 117.85 31.0344 117.467 31.4167C117.083 31.799 116.778 32.2529 116.571 32.7526C116.363 33.2522 116.256 33.7878 116.256 34.3286V77.9317C116.261 79.0212 116.699 80.0644 117.473 80.833C118.247 81.6017 119.296 82.0332 120.388 82.0332H123.044C123.022 81.7828 122.962 81.5398 122.962 81.2968V30.2124H120.388Z" fill="#C4C4C4"/>
<path fill-rule="evenodd" clip-rule="evenodd" d="M139.525 69.1987H157.402L167.414 91.9005H148.905L139.525 69.1987Z" fill="#C4C4C4"/>
<path fill-rule="evenodd" clip-rule="evenodd" d="M199.247 75.9031H213.974V91.9003H199.247V75.9031Z" fill="#C4C4C4"/>
<path d="M210.048 83.8999C210.048 83.1506 210.271 82.4181 210.689 81.7951C211.106 81.172 211.7 80.6865 212.394 80.3997C213.089 80.113 213.853 80.0379 214.59 80.1841C215.327 80.3303 216.004 80.6911 216.535 81.221C217.067 81.7508 217.429 82.4258 217.575 83.1608C217.722 83.8957 217.647 84.6574 217.359 85.3497C217.071 86.0419 216.584 86.6336 215.959 87.0499C215.335 87.4662 214.6 87.6884 213.848 87.6884C212.841 87.6884 211.874 87.2892 211.161 86.5787C210.449 85.8683 210.048 84.9046 210.048 83.8999V83.8999Z" stroke="#C4C4C4" stroke-linecap="round" stroke-linejoin="round"/>
<path d="M199.247 78.6277H213.849" stroke="#E6E6E6" stroke-linecap="round" stroke-linejoin="round"/>
</svg>
