<svg width="696" height="520" viewBox="0 0 696 520" fill="none" xmlns="http://www.w3.org/2000/svg">
<path d="M369.895 188.283H370.841C372.994 188.283 375.059 189.138 376.582 190.662C378.104 192.185 378.96 194.251 378.96 196.405V215.301H361.776V196.405C361.776 194.251 362.632 192.185 364.154 190.662C365.677 189.138 367.742 188.283 369.895 188.283Z" fill="#CA7358"/>
<path d="M359.814 203.019H380.928" stroke="#FFB7D5" stroke-linecap="round" stroke-linejoin="round"/>
<path d="M369.895 236.755H370.841C372.994 236.755 375.059 237.611 376.582 239.134C378.104 240.657 378.96 242.723 378.96 244.877V263.783H361.776V244.882C361.776 242.728 362.632 240.662 364.154 239.139C365.677 237.616 367.742 236.76 369.895 236.76V236.755Z" fill="#F5EBDD"/>
<path d="M359.814 251.497H380.928" stroke="#FFB7D5" stroke-linecap="round" stroke-linejoin="round"/>
<path d="M369.895 285.233H370.841C372.994 285.233 375.059 286.089 376.582 287.612C378.104 289.135 378.96 291.201 378.96 293.355V312.251H361.776V293.355C361.776 291.201 362.632 289.135 364.154 287.612C365.677 286.089 367.742 285.233 369.895 285.233Z" fill="#F5EBDD"/>
<path d="M359.814 299.969H380.928" stroke="#FFB7D5" stroke-linecap="round" stroke-linejoin="round"/>
<path d="M369.895 333.696H370.841C372.994 333.696 375.059 334.552 376.582 336.075C378.104 337.598 378.96 339.664 378.96 341.818V359.172H361.776V341.818C361.776 339.664 362.632 337.598 364.154 336.075C365.677 334.552 367.742 333.696 369.895 333.696Z" fill="#30242A"/>
<path d="M363.863 332.06C363.863 332.06 329.834 250.346 328.347 229.045C323.351 157.353 401.095 198.195 413.252 205.245C422.104 210.382 456.818 229.814 463.746 236.741C468.207 241.203 465.104 244.51 465.104 244.51C465.104 244.51 470.314 251.353 462.988 252.166C468.197 259.008 459.891 259.936 459.891 259.936C459.891 259.936 462.116 266.615 453.487 264.606C444.189 262.44 373.691 231.911 373.691 231.911C373.691 231.911 389.442 281.658 394.359 297.396L363.863 332.06Z" fill="#A15842"/>
<path d="M439.857 258.909C441.532 258.577 442.662 257.61 442.335 255.533C441.27 248.71 429.875 242.264 429.875 242.264C429.875 242.264 434.445 231.262 425.474 222.763" stroke="#30242A" stroke-miterlimit="10" stroke-linecap="round"/>
<path d="M459.777 259.584C455.688 257.189 440.7 248.417 437.146 246.593" stroke="#30242A" stroke-miterlimit="10" stroke-linecap="round"/>
<path d="M463.127 251.943C458.012 248.879 445.552 241.119 440.408 238.421" stroke="#30242A" stroke-miterlimit="10" stroke-linecap="round"/>
<path d="M464.985 243.563C458.542 239.289 446.39 231.371 441.582 228.941" stroke="#30242A" stroke-miterlimit="10" stroke-linecap="round"/>
<path d="M436.571 245.651C438.286 242.547 441.22 236.379 441.379 226.492" stroke="#30242A" stroke-miterlimit="10" stroke-linecap="round"/>
<path d="M373.503 233.071L361.896 227.796" stroke="#30242A" stroke-linecap="round" stroke-linejoin="round"/>
<path d="M245.8 510.589H129.289L107.317 442.948C105.687 437.93 108.433 433.864 113.443 433.864H211.8C216.816 433.864 222.208 437.93 223.829 442.948L245.8 510.589Z" fill="#C4C4C4"/>
<path d="M319.183 510.589H204.619C204.948 511.606 205.032 512.685 204.865 513.741C204.697 514.796 204.282 515.796 203.653 516.66C203.025 517.523 202.201 518.226 201.249 518.71C200.297 519.194 199.244 519.446 198.176 519.445H312.74C313.808 519.447 314.861 519.196 315.814 518.712C316.767 518.229 317.591 517.526 318.22 516.662C318.848 515.798 319.263 514.797 319.431 513.741C319.598 512.686 319.513 511.606 319.183 510.589Z" fill="#C4C4C4"/>
<path d="M204.619 510.589H129.403L130.28 513.297C130.86 515.083 131.99 516.641 133.509 517.745C135.028 518.849 136.858 519.445 138.735 519.445H198.21C199.275 519.441 200.324 519.185 201.272 518.699C202.219 518.212 203.039 517.509 203.663 516.646C204.288 515.783 204.7 514.784 204.866 513.732C205.032 512.68 204.947 511.603 204.619 510.589Z" fill="#8D8D8D"/>
<path d="M237.86 510.589H138.235L117.443 446.652H217.069L237.86 510.589Z" fill="white"/>
<path d="M601.237 287.306H601.114C600.231 288.902 594.418 298.665 584.203 298.665C573.988 298.665 568.174 288.902 567.287 287.306H567.168L551.269 359.107H617.137L601.237 287.306Z" fill="#3EC1F3"/>
<path d="M558.802 325.5C572.293 326.913 593.243 338.967 600.524 358.899" stroke="#F5EBDD" stroke-miterlimit="10" stroke-linecap="round"/>
<path d="M567.545 359.479C569.057 343.241 581.918 316.401 605.064 308.007" stroke="#F5EBDD" stroke-miterlimit="10" stroke-linecap="round"/>
<path d="M583.96 293.375C578.275 299.369 571.108 304.952 563 308.701" stroke="#F5EBDD" stroke-miterlimit="10" stroke-linecap="round"/>
<path d="M584.203 298.665C594.418 298.665 600.232 288.902 601.114 287.306H567.288C568.175 288.902 573.984 298.665 584.203 298.665Z" fill="#30242A"/>
<path d="M491.392 519.445C490.703 519.445 490.024 519.282 489.41 518.968C488.797 518.655 488.266 518.2 487.862 517.641C487.458 517.083 487.193 516.437 487.087 515.755C486.981 515.074 487.038 514.378 487.254 513.723L500.923 472.113C501.213 471.245 501.769 470.49 502.512 469.956C503.255 469.422 504.147 469.135 505.062 469.138H514.627C515.387 469.137 516.134 469.335 516.794 469.713C517.454 470.09 518.003 470.634 518.388 471.289C518.773 471.945 518.98 472.69 518.988 473.45C518.996 474.21 518.805 474.96 518.434 475.623L495.199 517.233C494.817 517.906 494.263 518.466 493.594 518.854C492.926 519.243 492.166 519.447 491.392 519.445Z" fill="#A15842"/>
<path d="M674.263 519.445C674.952 519.445 675.632 519.282 676.245 518.968C676.859 518.655 677.39 518.2 677.793 517.641C678.197 517.083 678.463 516.437 678.569 515.755C678.675 515.074 678.617 514.378 678.402 513.723L664.732 472.113C664.442 471.245 663.886 470.491 663.143 469.957C662.401 469.423 661.509 469.136 660.594 469.138H651.024C650.264 469.138 649.518 469.337 648.859 469.714C648.2 470.092 647.651 470.636 647.266 471.291C646.882 471.947 646.676 472.692 646.668 473.451C646.66 474.211 646.851 474.96 647.222 475.623L670.457 517.233C670.838 517.907 671.392 518.466 672.061 518.855C672.73 519.243 673.49 519.447 674.263 519.445Z" fill="#8D8D8D"/>
<path d="M695.362 358.294H471.062V486.755H695.362V358.294Z" fill="#C4C4C4"/>
<path d="M678.481 374.85V470.189H487.943V374.85H678.481ZM680.464 372.867H485.96V472.172H680.464V372.867Z" fill="#8D8D8D"/>
<path d="M583.004 372.688V472.361" stroke="#8D8D8D" stroke-miterlimit="10"/>
<path d="M605.545 428.301C608.733 428.301 611.319 425.715 611.319 422.524C611.319 419.334 608.733 416.748 605.545 416.748C602.356 416.748 599.771 419.334 599.771 422.524C599.771 425.715 602.356 428.301 605.545 428.301Z" fill="#30242A"/>
<path d="M560.879 428.301C564.068 428.301 566.653 425.715 566.653 422.524C566.653 419.334 564.068 416.748 560.879 416.748C557.69 416.748 555.105 419.334 555.105 422.524C555.105 425.715 557.69 428.301 560.879 428.301Z" fill="#30242A"/>
<path d="M429.985 235.66C439.893 235.66 447.926 227.624 447.926 217.711C447.926 207.797 439.893 199.761 429.985 199.761C420.076 199.761 412.043 207.797 412.043 217.711C412.043 227.624 420.076 235.66 429.985 235.66Z" fill="#30242A"/>
<path d="M416.052 228.807C417.485 229.457 405.337 201.041 399.251 205.543C393.526 209.762 408.806 225.51 416.052 228.807Z" fill="#FFBE21"/>
<path d="M414.511 228.753C415.701 230.24 444.373 220.819 440.542 214.978C436.864 209.376 413.322 227.275 414.511 228.753Z" fill="#FFBE21"/>
<path d="M449.651 208.121C456.031 208.121 461.204 202.946 461.204 196.563C461.204 190.18 456.031 185.005 449.651 185.005C443.27 185.005 438.098 190.18 438.098 196.563C438.098 202.946 443.27 208.121 449.651 208.121Z" fill="#30242A"/>
<path d="M370.747 401.407H429.741L432.854 386.651H361.771L370.747 401.407Z" fill="#CA7358"/>
<path d="M370.232 352.716C370.232 352.716 382.28 336.978 404.891 335.501L419.903 303.237C415.894 302.597 413.004 302.191 413.004 302.191C413.599 300.753 415.621 295.993 418.064 290.122C413.644 287.182 406.422 281.4 404.752 274.107C410.055 273.308 420.612 268.3 416.444 259.539C411.339 248.794 397.828 257.06 397.828 257.06C393.727 252.405 391.107 246.632 390.305 240.479C388.664 240.648 383.965 240.147 380.63 238.342L380.407 238.213C378.622 241.719 377.021 245.315 375.609 248.988C375.238 249.93 374.881 250.842 374.504 251.71C374.504 251.71 369.84 250.916 368.884 252.845C367.699 255.225 371.248 258.299 371.248 258.299C368.413 263.635 365.9 268.003 366.812 273.536C367.615 278.42 372.219 284.355 383.068 285.347L377.617 302.558L357.296 337.856C361.281 340.191 366.633 344.639 370.232 352.716Z" fill="#CA7358"/>
<path d="M513.804 283.617C507.406 275.629 484.563 243.013 476.935 236.894C472.018 232.957 469.069 236.398 469.069 236.398C469.069 236.398 461.694 231.971 461.694 239.349C454.32 234.921 454.32 243.281 454.32 243.281C454.32 243.281 447.435 241.793 450.389 250.168C453.566 259.172 489.226 324.166 489.226 324.166C489.226 324.166 452.352 310.397 438.098 306.727C435.481 306.053 432.274 305.389 429.038 304.784C426.951 309.673 423.69 317.675 418.431 331.063C411.294 349.186 414.764 367.303 435.416 374.493L439.079 357.139C439.079 357.139 477.242 371.488 498.554 370.908C570.831 368.945 522.656 294.679 513.804 283.617Z" fill="#CA7358"/>
<path d="M390.305 240.479C391.104 246.65 393.731 252.44 397.848 257.104C397.848 257.104 411.359 248.814 416.464 259.584C420.632 268.345 410.075 273.353 404.772 274.151C406.442 281.445 413.663 287.226 418.084 290.167C421.712 281.445 426.262 270.264 428.403 263.887C431.57 254.437 433.206 239.79 418.986 229.209C405.679 219.327 390.428 225.882 386.989 229.323C384.947 231.366 383.024 233.29 380.427 238.248L380.65 238.377C383.966 240.127 388.664 240.628 390.305 240.479Z" fill="#30242A"/>
<path d="M418.432 331.078C423.69 317.72 426.951 309.697 429.038 304.799C425.846 304.199 422.63 303.658 419.923 303.227L404.926 335.501C382.315 336.988 370.267 352.716 370.267 352.716C366.649 344.639 361.296 340.191 357.336 337.841L352.806 345.71C350.493 349.854 349.32 354.538 349.407 359.283C349.494 364.029 350.838 368.667 353.302 372.723L361.767 386.641H432.854L435.417 374.498C414.764 367.318 411.295 349.201 418.432 331.078Z" fill="#FFBE21"/>
<path d="M383.376 286.364C386.461 286.347 389.528 285.893 392.486 285.015" stroke="#30242A" stroke-miterlimit="10" stroke-linecap="round"/>
<path d="M455.742 260.238C456.104 258.979 456.996 258.161 458.746 258.285C465.63 258.78 473 269.599 473 269.599C473 269.599 483.581 264.145 492.795 272.351" stroke="#30242A" stroke-miterlimit="10" stroke-linecap="round"/>
<path d="M455.321 243.013C459.167 249.077 466.314 260.367 468.083 263.203" stroke="#30242A" stroke-miterlimit="10" stroke-linecap="round"/>
<path d="M462.418 238.803C466.383 244.644 473.322 254.61 475.953 258.78" stroke="#30242A" stroke-miterlimit="10" stroke-linecap="round"/>
<path d="M470.18 236.513C475.136 242.839 482.729 252.657 485.291 256.842" stroke="#30242A" stroke-miterlimit="10" stroke-linecap="round"/>
<path d="M469.069 263.203C472.043 261.22 477.916 257.794 487.749 256.812" stroke="#30242A" stroke-miterlimit="10" stroke-linecap="round"/>
<path d="M412.89 301.139L404.177 300.093" stroke="#30242A" stroke-miterlimit="10" stroke-linecap="round"/>
<path d="M382.053 396.488L381.562 395.506" stroke="#30242A" stroke-miterlimit="10" stroke-linecap="round"/>
<path d="M438.593 358.091L433.672 356.157" stroke="#30242A" stroke-miterlimit="10" stroke-linecap="round"/>
<path d="M500.532 327.632L489.355 323.239" stroke="#30242A" stroke-miterlimit="10" stroke-linecap="round"/>
<path d="M432.854 386.651H361.771" stroke="#30242A" stroke-linecap="round" stroke-linejoin="round"/>
<path d="M404.177 335.501L396.995 351.546C395.918 353.949 394.169 355.988 391.959 357.42C389.749 358.851 387.173 359.613 384.54 359.613H349.351" stroke="#30242A" stroke-linecap="round" stroke-linejoin="round"/>
<path d="M373.934 264.279C374.782 265.008 378.221 266 380.06 263.516" stroke="#30242A" stroke-miterlimit="10" stroke-linecap="round"/>
<path d="M408.856 262.737L402.631 265.152" stroke="#A15842" stroke-miterlimit="10" stroke-linecap="round"/>
<path d="M385.636 252.994C385.162 253.112 384.668 253.132 384.186 253.053C383.704 252.973 383.244 252.795 382.833 252.53C382.423 252.265 382.071 251.919 381.799 251.513C381.528 251.106 381.342 250.649 381.254 250.168" stroke="#30242A" stroke-linecap="round" stroke-linejoin="round"/>
<path d="M402.359 271.518L400.108 280.716C399.988 281.192 399.993 281.691 400.122 282.164C400.251 282.638 400.5 283.07 400.845 283.419C401.19 283.768 401.619 284.023 402.091 284.157C402.563 284.291 403.061 284.302 403.538 284.187L411.939 282.204C412.413 282.088 412.85 281.853 413.207 281.521C413.565 281.188 413.831 280.77 413.98 280.305C414.129 279.84 414.156 279.345 414.059 278.866C413.962 278.388 413.744 277.942 413.426 277.572L407.275 270.378C406.936 269.984 406.495 269.69 406.001 269.529C405.507 269.367 404.979 269.344 404.472 269.461C403.966 269.579 403.501 269.832 403.129 270.195C402.756 270.558 402.49 271.015 402.359 271.518Z" fill="#F4E6D8"/>
<path d="M421.281 485.232C416.365 479.327 399.261 457.962 399.261 457.962" stroke="#30242A" stroke-linecap="round" stroke-linejoin="round"/>
<path d="M554.109 437.325C552.305 432.446 548.994 424.27 544.91 414.452L501.077 427.25L496.051 428.836C498.311 443.458 500.046 450.589 500.046 450.589C500.046 450.589 452.852 407.307 429.746 401.407H370.727L350.57 519.445H526.567C576.734 519.445 562.475 459.935 554.109 437.325Z" fill="#4856DF"/>
<path d="M506.385 324.518C505.814 323.158 504.79 322.038 503.488 321.349C502.185 320.659 500.683 320.442 499.238 320.735C490.5 322.688 489.821 339.239 487.75 348.779C484.31 364.522 476.935 370.422 476.445 380.75C475.949 390.667 491.685 394.52 491.685 394.52C492.22 399.713 492.764 404.534 493.316 408.983L537.119 395.883C525.105 367.551 510.876 334.821 506.385 324.518Z" fill="#A15842"/>
<path d="M496.026 428.722V428.836L501.052 427.25L496.026 428.722Z" fill="#A15842"/>
<path d="M544.92 414.437C544.791 414.135 544.667 413.827 544.538 413.52L501.077 427.25L544.92 414.437Z" fill="#3EC1F3"/>
<path d="M544.538 413.525C542.254 408.041 539.736 402.066 537.104 395.888L493.301 408.988C494.238 416.644 495.164 423.214 496.012 428.727L501.057 427.24L544.538 413.525Z" fill="#3EC1F3"/>
<path d="M411.735 401.253C427.447 417.74 508.689 501.312 533.961 492.883C552.413 486.73 525.243 426.104 522.656 418.126" stroke="#3EC1F3" stroke-linecap="round" stroke-linejoin="round"/>
<path d="M521.398 468.364C515.703 463.257 505.538 454.149 500.135 449.339" stroke="#30242A" stroke-linecap="round" stroke-linejoin="round"/>
<path d="M489.717 383.21L490.679 393.488" stroke="#30242A" stroke-linecap="round" stroke-linejoin="round"/>
<path d="M502.068 321.607L503.932 326.833" stroke="#30242A" stroke-linecap="round" stroke-linejoin="round"/>
<path d="M497.607 322.103L500.621 329.516" stroke="#30242A" stroke-linecap="round" stroke-linejoin="round"/>
<path d="M383.381 466.996L383.103 466.911L393.358 401.308H370.728C370.728 401.308 280.291 435.838 259.643 468.786C240.126 499.929 275.865 519.445 286.189 519.445H376.229L383.381 466.996Z" fill="#4856DF"/>
<path d="M478.407 519.445C490.208 519.445 486.277 506.162 477.911 501.739C469.545 497.316 459.722 492.883 449.398 479.114C439.074 465.345 426.782 468.786 418.917 478.618C418.917 478.618 412.92 476.461 404.108 473.536L397.208 519.44L478.407 519.445Z" fill="#CA7358"/>
<path d="M384.243 467.253L383.381 466.996L376.229 519.445H397.214L404.113 473.521C398.383 471.642 391.47 469.415 384.243 467.253Z" fill="#3EC1F3"/>
<path d="M473 514.035L480.26 518.453" stroke="#30242A" stroke-linecap="round" stroke-linejoin="round"/>
<path d="M334.859 455.507C355.507 459.439 364.438 461.953 383.118 467.903" stroke="#30242A" stroke-linecap="round" stroke-linejoin="round"/>
<path d="M467.102 516.495L471.339 518.949" stroke="#30242A" stroke-linecap="round" stroke-linejoin="round"/>
<path d="M419.908 478.008L426.787 480.591" stroke="#30242A" stroke-linecap="round" stroke-linejoin="round"/>
<path d="M585.764 292.671C586.815 286.463 591.593 261.84 603.285 248.517" stroke="#30242A" stroke-miterlimit="10" stroke-linecap="round"/>
<path d="M610.478 269.994C620.686 265.579 628.157 260.137 627.164 257.84C626.171 255.542 617.091 257.259 606.883 261.674C596.674 266.089 589.204 271.531 590.197 273.828C591.189 276.126 600.27 274.409 610.478 269.994Z" fill="#30242A"/>
<path d="M611.495 205.726C615.186 200.8 616.787 195.763 615.07 194.476C613.353 193.188 608.968 196.137 605.277 201.062C601.586 205.987 599.986 211.024 601.703 212.312C603.42 213.6 607.804 210.651 611.495 205.726Z" fill="#30242A"/>
<path d="M631.426 238.932C630.708 236.592 626.049 235.838 620.151 236.825C624.468 230.989 626.252 225.292 624.116 223.492C621.98 221.692 616.681 224.409 611.646 229.64C611.646 223.661 610.104 219.188 607.681 218.876C604.588 218.474 601.198 224.994 600.108 233.433C599.786 235.844 599.696 238.28 599.84 240.707C601.267 240.26 602.783 240.177 604.25 240.464C605.718 240.751 607.09 241.401 608.243 242.353C609.396 243.306 610.293 244.531 610.852 245.918C611.412 247.305 611.617 248.81 611.448 250.297C613.787 250.026 616.097 249.54 618.347 248.844C626.47 246.355 632.328 241.917 631.426 238.932Z" fill="#FFBE21"/>
<path d="M608.305 242.413C607.151 241.437 605.768 240.769 604.287 240.471C602.805 240.172 601.272 240.254 599.83 240.707C600.093 244.728 601.089 247.813 602.611 248.963C604.023 250.297 607.324 250.758 611.438 250.297C611.605 248.826 611.406 247.337 610.86 245.962C610.313 244.587 609.436 243.368 608.305 242.413Z" fill="#30242A"/>
<path d="M582.523 291.882C582.181 284.831 580.134 250.232 572.461 229.799" stroke="#30242A" stroke-miterlimit="10" stroke-linecap="round"/>
<path d="M557.221 272.038C570.405 269.524 580.732 265.598 580.288 263.269C579.845 260.939 568.798 261.088 555.614 263.602C542.431 266.116 532.103 270.042 532.547 272.371C532.99 274.701 544.038 274.552 557.221 272.038Z" fill="#30242A"/>
<path d="M578.087 200.376C575.698 199.851 572.759 203.549 570.722 209.172C567.748 202.548 563.664 198.199 561.057 199.171C558.45 200.143 558.197 206.113 560.294 213.055C555.075 210.139 550.436 209.271 548.974 211.235C547.105 213.714 551.12 219.887 557.94 224.979C559.883 226.442 561.96 227.715 564.145 228.782C564.455 227.319 565.125 225.956 566.095 224.818C567.065 223.679 568.304 222.801 569.699 222.262C571.094 221.724 572.602 221.543 574.085 221.735C575.568 221.927 576.979 222.487 578.191 223.363C579.1 221.189 579.808 218.937 580.307 216.635C582.126 208.324 581.135 201.046 578.087 200.376Z" fill="#FFBE21"/>
<path d="M569.79 222.233C568.373 222.76 567.112 223.637 566.125 224.784C565.138 225.93 564.457 227.307 564.145 228.787C567.778 230.528 570.95 231.172 572.7 230.414C574.553 229.829 576.575 227.176 578.191 223.368C576.993 222.501 575.599 221.944 574.133 221.746C572.667 221.547 571.176 221.715 569.79 222.233Z" fill="#30242A"/>
<path d="M546.917 237.227V237.256C548.876 238.364 550.349 240.166 551.043 242.307C551.738 244.448 551.605 246.772 550.669 248.819C549.732 250.863 548.063 252.482 545.991 253.357C543.92 254.231 541.596 254.298 539.478 253.544V253.579C550.57 258.651 561.231 259.098 563.268 254.571C565.305 250.044 558.01 242.294 546.917 237.227Z" fill="#FFBE21"/>
<path d="M547.809 252.315C546.852 251.779 546.132 250.902 545.792 249.858C545.453 248.815 545.519 247.681 545.977 246.685C546.435 245.688 547.252 244.9 548.265 244.479C549.278 244.057 550.412 244.033 551.442 244.411C551.33 242.937 550.858 241.514 550.066 240.266C549.274 239.018 548.188 237.985 546.902 237.256L539.468 253.544C540.852 254.039 542.337 254.185 543.792 253.971C545.246 253.757 546.626 253.188 547.809 252.315Z" fill="#F5EBDD"/>
<path d="M545.976 246.697C545.521 247.693 545.457 248.823 545.797 249.864C546.137 250.904 546.855 251.779 547.809 252.315C549.035 251.414 550.012 250.216 550.648 248.833C551.283 247.45 551.557 245.929 551.442 244.411C550.411 244.035 549.275 244.061 548.262 244.484C547.249 244.908 546.432 245.698 545.976 246.697Z" fill="#30242A"/>
<path d="M118.5 451H218.5L217 446.5H117L118.5 451Z" fill="#0097F7"/>
<path d="M147 480.5L181 498L208.5 463.5" stroke="#0097F7"/>
</svg>
