<svg width="135" height="135" viewBox="0 0 135 135" fill="none" xmlns="http://www.w3.org/2000/svg">
<rect width="135" height="135" fill="white"/>
<path d="M25.5 111.118V49.5369H105.027V111.118H25.5Z" fill="#AADAF1" stroke="#191919"/>
<path d="M91.9354 23.3607L91.795 23.0929H91.4926H39.4948H39.197L39.0551 23.3548L24.5603 50.1235L24.1607 50.8616H25H105.528H106.354L105.97 50.1294L91.9354 23.3607Z" fill="#F7D167" stroke="#191919"/>
<path d="M44.5 23L36 51H50L56.5 23H73L84.5 51H97.5L84.5 23" stroke="#191919" stroke-width="0.5"/>
<path d="M54.7191 111.119V79.9067H75.8076V111.119H54.7191Z" fill="#F7D167" stroke="#191919"/>
<path d="M33.5 91.5V80.5H46.5V91.5H33.5Z" fill="white" stroke="#191919"/>
<path d="M106.179 110.705C105.985 110.83 105.827 110.93 105.708 111.003C105.589 110.93 105.43 110.83 105.236 110.705C104.771 110.404 104.104 109.955 103.302 109.365C101.698 108.185 99.5601 106.445 97.4234 104.206C93.1421 99.7195 88.9157 93.2831 88.9157 85.37C88.9157 83.6139 89.1892 81.9229 89.6898 80.332C95.4526 80.1756 100.534 78.5727 103.573 76.1457C104.783 75.1798 106.52 75.1764 107.727 76.1412C110.785 78.586 115.914 80.1959 121.727 80.3347C122.227 81.9249 122.5 83.6151 122.5 85.3702C122.5 93.2833 118.273 99.7196 113.992 104.206C111.855 106.445 109.717 108.185 108.113 109.365C107.312 109.955 106.645 110.404 106.179 110.705Z" fill="#F7D167" stroke="#191919"/>
</svg>
