<svg width="135" height="135" viewBox="0 0 135 135" fill="none" xmlns="http://www.w3.org/2000/svg">
<rect width="135" height="135" fill="white"/>
<path d="M22.5337 114C22.1412 114 21.7486 113.85 21.4496 113.551C20.8501 112.951 20.8501 111.982 21.4496 111.383L39.083 93.7492C39.6825 93.1497 40.6516 93.1497 41.2511 93.7492C41.8506 94.3487 41.8506 95.3178 41.2511 95.9173L23.6178 113.551C23.3188 113.85 22.9262 114 22.5337 114Z" fill="#191919"/>
<path d="M48.5055 90.8323L44.1686 86.4954L38.1307 92.5334L42.4675 96.8703L48.5055 90.8323Z" fill="#F7D167"/>
<path d="M93.8638 41.1335L93.8639 41.1336L93.8669 41.1366L93.867 41.1367C95.2678 42.5375 96.4804 44.1249 97.4649 45.856L50.6733 92.6476L42.3528 84.3271L51.7574 74.9225L53.7488 76.9139C54.0964 77.2615 54.5533 77.4363 55.0096 77.4363C55.4659 77.4363 55.9228 77.2615 56.2704 76.9139C56.9676 76.2167 56.9676 75.0893 56.2704 74.3922L54.2791 72.4008L56.0937 70.5862L58.085 72.5776C58.4327 72.9252 58.8896 73.1001 59.3459 73.1001C59.8022 73.1001 60.2591 72.9252 60.6067 72.5776C61.3039 71.8804 61.3039 70.7531 60.6067 70.0559L58.6154 68.0645L60.4299 66.25L62.4213 68.2413C62.7689 68.589 63.2258 68.7638 63.6821 68.7638C64.1384 68.7638 64.5953 68.589 64.943 68.2413C65.6401 67.5442 65.6401 66.4168 64.943 65.7196L62.9516 63.7283L64.7677 61.9122L66.7591 63.9035C67.1067 64.2512 67.5637 64.426 68.0199 64.426C68.4762 64.426 68.9331 64.2512 69.2808 63.9035C69.9779 63.2064 69.9779 62.079 69.2808 61.3818L67.2894 59.3905L89.1443 37.5356C90.8743 38.5201 92.4631 39.7328 93.8638 41.1335Z" fill="#AADAF1" stroke="#191919" stroke-width="0.5"/>
<path d="M55.0096 76.9362C54.6809 76.9362 54.3527 76.8105 54.1024 76.5601L52.111 74.5688L53.9256 72.7542L55.9169 74.7455C56.4188 75.2474 56.4188 76.0582 55.9169 76.5601C55.6666 76.8105 55.3384 76.9362 55.0096 76.9362Z" fill="#F7D167" stroke="black" stroke-width="0.5"/>
<path d="M60.2549 72.2239C60.0046 72.4743 59.6764 72.6 59.3477 72.6C59.0189 72.6 58.6907 72.4743 58.4404 72.2239L56.449 70.2326L58.2636 68.418L60.2549 70.4094C60.7568 70.9113 60.7568 71.722 60.2549 72.2239Z" fill="#F7D167" stroke="black" stroke-width="0.5"/>
<path d="M63.6838 68.2636C63.3551 68.2636 63.0269 68.1379 62.7765 67.8875L60.7852 65.8962L62.5998 64.0816L64.5911 66.0729C65.093 66.5748 65.093 67.3856 64.5911 67.8875C64.3408 68.1379 64.0126 68.2636 63.6838 68.2636Z" fill="#F7D167" stroke="black" stroke-width="0.5"/>
<path d="M68.0199 63.9259C67.6911 63.9259 67.363 63.8002 67.1126 63.5499L65.1213 61.5585L66.9358 59.7439L68.9272 61.7353C69.4291 62.2372 69.4291 63.048 68.9272 63.5499C68.6768 63.8002 68.3487 63.9259 68.0199 63.9259Z" fill="#F7D167" stroke="black" stroke-width="0.5"/>
<path d="M55.0112 88.6635L46.3375 79.9897L42.0006 84.3266L50.6743 93.0004L55.0112 88.6635Z" fill="#191919"/>
<path d="M78.8622 57.6715C78.4697 57.6715 78.0771 57.5212 77.7781 57.2222C77.1786 56.6227 77.1786 55.6536 77.7781 55.0541L97.2944 35.5378C97.8939 34.9383 98.863 34.9383 99.4625 35.5378C100.062 36.1373 100.062 37.1064 99.4625 37.7059L79.9463 57.2222C79.6473 57.5212 79.2547 57.6715 78.8622 57.6715Z" fill="#F7D167"/>
<path d="M84.2839 59.3904L75.6102 50.7166L73.4418 52.885L82.1155 61.5588L84.2839 59.3904Z" fill="#191919"/>
<path d="M103.8 40.4C101.342 40.4 99.0332 39.4432 97.2944 37.7059C95.5556 35.9687 94.6003 33.6579 94.6003 31.2C94.6003 28.7421 95.5571 26.4329 97.2944 24.6941C99.0317 22.9553 101.342 22 103.8 22C106.258 22 108.567 22.9568 110.306 24.6941C112.045 26.4313 113 28.7421 113 31.2C113 33.6579 112.044 35.9671 110.306 37.7059C108.569 39.4447 106.258 40.4 103.8 40.4ZM103.8 25.0667C102.163 25.0667 100.622 25.7045 99.4625 26.8622C98.3033 28.0199 97.667 29.5624 97.667 31.2C97.667 32.8376 98.3049 34.3786 99.4625 35.5378C101.779 37.8547 105.82 37.8547 108.137 35.5378C109.296 34.3786 109.934 32.8376 109.934 31.2C109.934 29.5624 109.296 28.0214 108.138 26.8622C106.98 25.703 105.438 25.0667 103.8 25.0667Z" fill="#F7D167"/>
<path d="M78.8377 35.7357C78.1292 35.7229 77.5645 35.1375 77.5774 34.4293C77.5902 33.7223 78.1652 33.1631 78.885 33.169C91.3125 33.3911 101.607 43.686 101.83 56.1152L101.83 56.1152C101.843 56.8227 101.279 57.4076 100.572 57.4216H100.572H100.572H100.572H100.572H100.572H100.572H100.572H100.572H100.572H100.572H100.571H100.571H100.571H100.571H100.571H100.571H100.571H100.571H100.571H100.571H100.571H100.571H100.571H100.571H100.571H100.571H100.571H100.571H100.571H100.571H100.571H100.57H100.57H100.57H100.57H100.57H100.57H100.57H100.57H100.57H100.57H100.57H100.57H100.57H100.57H100.57H100.57H100.57H100.57H100.57H100.57H100.57H100.569H100.569H100.569H100.569H100.569H100.569H100.569H100.569H100.569H100.569H100.569H100.569H100.569H100.569H100.569H100.569H100.569H100.569H100.569H100.569H100.568H100.568H100.568H100.568H100.568H100.568H100.568H100.568H100.568H100.568H100.568H100.568H100.568H100.568H100.568H100.568H100.568H100.568H100.568H100.568H100.567H100.567H100.567H100.567H100.567H100.567H100.567H100.567H100.567H100.567H100.567H100.567H100.567H100.567H100.567H100.567H100.567H100.567H100.567H100.567H100.566H100.566H100.566H100.566H100.566H100.566H100.566H100.566H100.566H100.566H100.566H100.566H100.566H100.566H100.566H100.566H100.566H100.566H100.566H100.566H100.565H100.565H100.565H100.565H100.565H100.565H100.565H100.565H100.565H100.565H100.565H100.565H100.565H100.565H100.565H100.565H100.565H100.565H100.565H100.564H100.564H100.564H100.564H100.564H100.564H100.564H100.564H100.564H100.564H100.564H100.564H100.564H100.564H100.564H100.564H100.564H100.564H100.564H100.563H100.563H100.563H100.563H100.563H100.563H100.563H100.563H100.563H100.563H100.563H100.563H100.563H100.563H100.563H100.563H100.563H100.563H100.563H100.562H100.562H100.562H100.562H100.562H100.562H100.562H100.562H100.562H100.562H100.562H100.562H100.562H100.562H100.562H100.562H100.562H100.562H100.562H100.561H100.561H100.561H100.561H100.561H100.561H100.561H100.561H100.561H100.561H100.561H100.561H100.561H100.561H100.561H100.561H100.561H100.561H100.56H100.56H100.56H100.56H100.56H100.56H100.56H100.56H100.56H100.56H100.56H100.56H100.56H100.56H100.56H100.56H100.56H100.56H100.559H100.559H100.559H100.559H100.559H100.559H100.559H100.559H100.559H100.559H100.559H100.559H100.559H100.559H100.559H100.559H100.559H100.559H100.558H100.558H100.558H100.558H100.558H100.558H100.558H100.558H100.558H100.558H100.558H100.558H100.558H100.558H100.558H100.558H100.558H100.558H100.557H100.557H100.557H100.557H100.557H100.557H100.557H100.557H100.557H100.557H100.557H100.557H100.557H100.557H100.557H100.557H100.557H100.557H100.556H100.556H100.556H100.556H100.556H100.556H100.556H100.556H100.556H100.556H100.556H100.556H100.556H100.556H100.556H100.556H100.556H100.555H100.555H100.555H100.555H100.555H100.555H100.555H100.555H100.555H100.555H100.555H100.555H100.555H100.555H100.555H100.555H100.555H100.554H100.554H100.554H100.554H100.554H100.554H100.554H100.554H100.554H100.554H100.554H100.554H100.554H100.554H100.554H100.554H100.554H100.553H100.553H100.553H100.553H100.553H100.553H100.553H100.553H100.553H100.553H100.553H100.553H100.553H100.553H100.553H100.553H100.553H100.552H100.552H100.552H100.552H100.552H100.552H100.552H100.552H100.552H100.552H100.552H100.552H100.552H100.552H100.552H100.552H100.552H100.551H100.551H100.551H100.551H100.551H100.551H100.551H100.551H100.551H100.551H100.551H100.551H100.551H100.551H100.551H100.551H100.551H100.55H100.55H100.55H100.55H100.55H100.55H100.55H100.55H100.55H100.55H100.55H100.55H100.55H100.55H100.55H100.55H100.549H100.549H100.549H100.549H100.549H100.549H100.549H100.549H100.549H100.549H100.549H100.549H100.549H100.549H100.549H100.549H100.548H100.548H100.548H100.548H100.548H100.548H100.548H100.548H100.548H100.548H100.548H100.548H100.548H100.548H100.548H100.548H100.547H100.547H100.547H100.547H100.547H100.547H100.547H100.547H100.547H100.547H100.547H100.547H100.547H100.547C99.8485 57.4216 99.2761 56.8619 99.2633 56.1613C99.0661 45.0956 89.9048 35.9344 78.8377 35.7357ZM78.8377 35.7357L78.8331 35.9857M78.8377 35.7357L78.8331 35.9857M78.8331 35.9857C77.9867 35.9703 77.3121 35.2711 77.3274 34.4247C77.3427 33.5783 78.0327 32.9113 78.8883 32.919C91.4509 33.1429 101.855 43.5465 102.08 56.1107L78.8331 35.9857Z" fill="#AADAF1" stroke="#191919" stroke-width="0.5"/>
</svg>
