<svg width="28" height="28" viewBox="0 0 28 28" fill="none" xmlns="http://www.w3.org/2000/svg">
<path fill-rule="evenodd" clip-rule="evenodd" d="M16.7886 19.8831C15.0797 21.0099 13.0329 21.6657 10.8329 21.6657C4.85004 21.6657 0 16.8157 0 10.8329C0 4.85004 4.85004 0 10.8329 0C16.8157 0 21.6657 4.85004 21.6657 10.8329C21.6657 13.0329 21.0099 15.0798 19.8831 16.7886L28 24.9055L24.9055 28L16.7886 19.8831ZM17.8275 10.7192C17.8275 14.645 14.645 17.8275 10.7192 17.8275C6.79344 17.8275 3.61095 14.645 3.61095 10.7192C3.61095 6.79344 6.79344 3.61095 10.7192 3.61095C14.645 3.61095 17.8275 6.79344 17.8275 10.7192Z" fill="white"/>
</svg>
