<svg width="20" height="21" viewBox="0 0 20 21" fill="none" xmlns="http://www.w3.org/2000/svg">
<path d="M6.88462 1.00059V16.3452M12.478 4.50063L7.52197 1.15403C7.32483 1.0501 7.10703 0.997324 6.88668 1.0001C6.66632 1.00288 6.44978 1.06114 6.25505 1.17002L1.36822 4.63078C1.25704 4.69295 1.16402 4.78591 1.09914 4.89969C1.03426 5.01346 0.999989 5.14375 1 5.27654V18.7853C0.99999 18.9113 1.03086 19.0352 1.0896 19.1449C1.14835 19.2546 1.23297 19.3464 1.33526 19.4114C1.43755 19.4764 1.55403 19.5124 1.67338 19.5158C1.79273 19.5192 1.91089 19.4901 2.01639 19.4311L6.24899 16.5179C6.44531 16.4081 6.66378 16.3498 6.88594 16.3479C7.10811 16.346 7.32745 16.4005 7.52543 16.5069L12.3655 19.8407C12.5618 19.9463 12.7791 20.0009 12.9994 20C13.2196 19.9991 13.4365 19.9428 13.632 19.8357L18.6266 16.3676C18.7391 16.306 18.8335 16.2129 18.8993 16.0985C18.9652 15.9842 19 15.8529 19 15.7191V2.214C19 2.08799 18.9691 1.96411 18.9104 1.85441C18.8517 1.74471 18.767 1.6529 18.6647 1.58791C18.5624 1.52292 18.446 1.48696 18.3266 1.48351C18.2073 1.48007 18.0891 1.50926 17.9836 1.56825L13.7432 4.48464C13.5487 4.59322 13.3325 4.65131 13.1125 4.65409C12.8924 4.65687 12.6749 4.60426 12.478 4.50063V4.50063ZM13.1154 4.65407V19.9987V4.65407Z" stroke="black" stroke-width="0.5" stroke-linecap="round" stroke-linejoin="round"/>
</svg>
