<svg width="20" height="15" viewBox="0 0 20 15" fill="none" xmlns="http://www.w3.org/2000/svg">
<path d="M15.8663 3.89282C15.7486 5.52686 14.5364 6.78564 13.2145 6.78564C11.8927 6.78564 10.6785 5.52726 10.5628 3.89282C10.4423 2.19289 11.6223 1 13.2145 1C14.8068 1 15.9868 2.22382 15.8663 3.89282Z" stroke="#191919" stroke-width="0.5" stroke-linecap="round" stroke-linejoin="round"/>
<path d="M13.2146 9.35693C10.5962 9.35693 8.07819 10.6575 7.4474 13.1903C7.36383 13.5254 7.57396 13.8569 7.91829 13.8569H18.5112C18.8555 13.8569 19.0645 13.5254 18.9821 13.1903C18.3513 10.6169 15.8334 9.35693 13.2146 9.35693Z" stroke="#191919" stroke-width="0.5" stroke-miterlimit="10"/>
<path d="M7.75027 4.61356C7.65626 5.91854 6.67672 6.9463 5.62084 6.9463C4.56496 6.9463 3.58381 5.91894 3.4914 4.61356C3.39538 3.25594 4.3488 2.28564 5.62084 2.28564C6.89287 2.28564 7.8463 3.28085 7.75027 4.61356Z" stroke="#191919" stroke-width="0.5" stroke-linecap="round" stroke-linejoin="round"/>
<path d="M7.99137 9.43758C7.26616 9.10531 6.46742 8.97754 5.62087 8.97754C3.53161 8.97754 1.51869 10.0161 1.01446 12.0391C0.948162 12.3067 1.11611 12.5715 1.39092 12.5715H5.90211" stroke="#191919" stroke-width="0.5" stroke-miterlimit="10" stroke-linecap="round"/>
</svg>
