<svg width="20" height="20" viewBox="0 0 20 20" fill="none" xmlns="http://www.w3.org/2000/svg">
<path d="M18.4382 15.1056C17.751 14.4133 16.0869 13.4029 15.2794 12.9957C14.228 12.4661 14.1414 12.4228 13.315 13.0369C12.7637 13.4466 12.3972 13.8127 11.752 13.6751C11.1069 13.5375 9.70493 12.7617 8.47735 11.538C7.24978 10.3143 6.42894 8.87166 6.29091 8.22866C6.15287 7.58566 6.525 7.22349 6.93087 6.67093C7.50291 5.89207 7.45964 5.76225 6.97068 4.71079C6.58947 3.89298 5.54969 2.24438 4.85476 1.56071C4.11138 0.826413 4.11138 0.956224 3.63238 1.15527C3.24241 1.31934 2.8683 1.51879 2.51471 1.7511C1.82238 2.21106 1.43814 2.59314 1.16943 3.16734C0.900726 3.74153 0.780002 5.08767 2.16768 7.6086C3.55536 10.1295 4.52894 11.4185 6.54404 13.428C8.55913 15.4375 10.1086 16.5179 12.3738 17.7884C15.176 19.3578 16.2509 19.0519 16.8268 18.7836C17.4027 18.5153 17.7865 18.1345 18.2474 17.4422C18.4803 17.0892 18.6802 16.7155 18.8445 16.3258C19.044 15.8486 19.1738 15.8486 18.4382 15.1056Z" stroke="black" stroke-width="0.5" stroke-miterlimit="10"/>
</svg>
