<svg width="135" height="135" viewBox="0 0 135 135" fill="none" xmlns="http://www.w3.org/2000/svg">
<rect width="135" height="135" fill="white"/>
<path d="M96.1166 112.228V112.5C96.0844 115.843 95.45 117.991 94.1139 119.327C92.7418 120.698 90.5136 121.33 87.0153 121.33H48.6027C45.103 121.33 42.8748 120.698 41.5031 119.327C40.1315 117.955 39.5 115.727 39.5 112.228V22.6017C39.5 19.1027 40.1315 16.8747 41.5031 15.5031C42.8748 14.1315 45.103 13.5 48.6027 13.5H87.014C90.5124 13.5 92.7407 14.1314 94.1127 15.503C95.4846 16.8746 96.1166 19.1026 96.1166 22.6017V112.228Z" fill="white" stroke="#191919"/>
<path d="M93.6791 23.4017H41.6639V110.36H93.6791V23.4017Z" fill="#AADAF1"/>
<path d="M47.6506 59.3276H88.0947C89.0867 59.3276 89.8881 58.525 89.8881 57.5355V51.0318L86.5395 47.6833C86.5395 47.6833 84.638 45.231 82.87 45.3307C81.2761 45.422 79.4217 47.4136 79.0656 47.8074L76.8381 45.5825C76.8381 45.5825 74.6106 42.7094 72.5375 42.8238C70.4644 42.9431 67.9903 45.8295 67.9903 45.8295L67.3131 46.508L63.122 42.3156C63.122 42.3156 60.3815 38.7848 57.8329 38.9281C55.2893 39.0717 52.2449 42.6171 52.2449 42.6171L45.8543 49.0077V57.5381C45.8559 58.5253 46.6608 59.3276 47.6506 59.3276Z" fill="#F7D167"/>
<path d="M57.8333 38.9268C60.3818 38.7831 63.1224 42.3143 63.1224 42.3143L67.3134 46.5067L67.9906 45.8282C67.9906 45.8282 70.4651 42.9417 72.5379 42.8225C74.611 42.7071 76.8384 45.5812 76.8384 45.5812L79.0659 47.8087C79.4221 47.4149 81.2765 45.4233 82.8703 45.332C84.637 45.2323 86.5399 47.6846 86.5399 47.6846L89.8884 51.0331V34.1631C89.8884 33.1721 89.0884 32.3672 88.0951 32.3672H47.6506C46.6608 32.3672 45.8547 33.1708 45.8547 34.1631V49.0061L52.2453 42.6155C52.2453 42.6158 55.2896 39.0704 57.8333 38.9268Z" fill="white"/>
<path d="M73.5617 16.6438C73.5617 17.0487 73.0864 17.3733 72.5028 17.3733H63.1175C62.5313 17.3733 62.0559 17.0487 62.0559 16.6438C62.0559 16.2425 62.5313 15.9156 63.1175 15.9156H72.5028C73.0864 15.9156 73.5617 16.2425 73.5617 16.6438Z" fill="#191919"/>
<path d="M67.7924 91.6462C68.6024 91.6462 69.2589 90.9896 69.2589 90.1797C69.2589 89.3698 68.6024 88.7133 67.7924 88.7133C66.9825 88.7133 66.326 89.3698 66.326 90.1797C66.326 90.9896 66.9825 91.6462 67.7924 91.6462Z" fill="white"/>
<path d="M73.1264 91.1135C73.6422 91.1135 74.0603 90.6954 74.0603 90.1796C74.0603 89.6638 73.6422 89.2457 73.1264 89.2457C72.6106 89.2457 72.1925 89.6638 72.1925 90.1796C72.1925 90.6954 72.6106 91.1135 73.1264 91.1135Z" fill="white"/>
<path d="M77.3977 91.1135C77.9135 91.1135 78.3316 90.6954 78.3316 90.1796C78.3316 89.6638 77.9135 89.2457 77.3977 89.2457C76.8819 89.2457 76.4638 89.6638 76.4638 90.1796C76.4638 90.6954 76.8819 91.1135 77.3977 91.1135Z" fill="white"/>
<path d="M58.1885 91.1145C58.7048 91.1145 59.1234 90.6959 59.1234 90.1796C59.1234 89.6633 58.7048 89.2448 58.1885 89.2448C57.6722 89.2448 57.2537 89.6633 57.2537 90.1796C57.2537 90.6959 57.6722 91.1145 58.1885 91.1145Z" fill="white"/>
<path d="M62.455 91.1135C62.9708 91.1135 63.3889 90.6954 63.3889 90.1796C63.3889 89.6638 62.9708 89.2457 62.455 89.2457C61.9392 89.2457 61.5211 89.6638 61.5211 90.1796C61.5211 90.6954 61.9392 91.1135 62.455 91.1135Z" fill="white"/>
<path d="M54.4094 82.1979C54.4094 83.1877 53.6068 83.99 52.616 83.99H47.3819C46.3898 83.99 45.5859 83.1887 45.5859 82.1979V76.9625C45.5859 75.9704 46.3885 75.1665 47.3819 75.1665H52.616C53.6058 75.1665 54.4094 75.9691 54.4094 76.9625V82.1979Z" fill="#F7D167"/>
<path d="M66.2798 82.1979C66.2798 83.1877 65.4749 83.99 64.4839 83.99H59.252C58.2599 83.99 57.456 83.1887 57.456 82.1979V76.9625C57.456 75.9704 58.2586 75.1665 59.252 75.1665H64.4842C65.474 75.1665 66.2801 75.9691 66.2801 76.9625V82.1979H66.2798Z" fill="#F7D167"/>
<path d="M78.1489 82.1979C78.1489 83.1877 77.3441 83.99 76.3556 83.99H71.1214C70.1317 83.99 69.3232 83.1887 69.3232 82.1979V76.9625C69.3232 75.9704 70.1307 75.1665 71.1214 75.1665H76.3556C77.3441 75.1665 78.1489 75.9691 78.1489 76.9625V82.1979Z" fill="#F7D167"/>
<path d="M90.0181 82.1979C90.0181 83.1877 89.2154 83.99 88.2247 83.99H82.9906C81.9985 83.99 81.1972 83.1887 81.1972 82.1979V76.9625C81.1972 75.9704 81.9972 75.1665 82.9906 75.1665H88.2247C89.2145 75.1665 90.0181 75.9691 90.0181 76.9625V82.1979Z" fill="#F7D167"/>
<path d="M89.8855 67.261C89.8855 68.2495 89.0855 69.0521 88.0921 69.0521H47.648C46.6582 69.0521 45.8521 68.2508 45.8521 67.261V65.2256C45.8521 64.2345 46.6569 63.4309 47.648 63.4309H88.0921C89.0842 63.4309 89.8855 64.2335 89.8855 65.2256V67.261Z" stroke="white" stroke-width="0.5" stroke-miterlimit="10"/>
<path d="M85.7019 67.0129C86.4378 67.0129 87.0344 66.4163 87.0344 65.6804C87.0344 64.9444 86.4378 64.3478 85.7019 64.3478C84.9659 64.3478 84.3693 64.9444 84.3693 65.6804C84.3693 66.4163 84.9659 67.0129 85.7019 67.0129Z" fill="white"/>
<path d="M88.1152 68.106C88.0105 68.2093 87.8113 68.1801 87.6713 68.0378L86.1733 66.5398C86.0336 66.401 86.0017 66.2031 86.1064 66.0985L86.2389 65.9659C86.3436 65.86 86.5428 65.8918 86.6828 66.0342L88.1808 67.5295C88.3205 67.6706 88.3524 67.8688 88.2451 67.9734L88.1152 68.106Z" fill="white"/>
<path d="M52.3717 102.233C52.3717 103.038 51.7189 103.692 50.9114 103.692H46.6485C45.841 103.692 45.1859 103.038 45.1859 102.233V97.9676C45.1859 97.1614 45.8414 96.5073 46.6485 96.5073H50.9114C51.7189 96.5073 52.3717 97.1614 52.3717 97.9676V102.233Z" fill="#F7D167"/>
<path d="M62.0413 102.233C62.0413 103.038 61.3836 103.692 60.5787 103.692H56.3158C55.5083 103.692 54.8555 103.038 54.8555 102.233V97.9676C54.8555 97.1614 55.5083 96.5073 56.3158 96.5073H60.5787C61.3836 96.5073 62.0413 97.1614 62.0413 97.9676V102.233Z" fill="#F7D167"/>
<path d="M71.7063 102.233C71.7063 103.038 71.0509 103.692 70.246 103.692H65.9831C65.1757 103.692 64.5206 103.038 64.5206 102.233V97.9676C64.5206 97.1614 65.176 96.5073 65.9831 96.5073H70.246C71.0509 96.5073 71.7063 97.1614 71.7063 97.9676V102.233Z" fill="#F7D167"/>
<path d="M81.3746 102.233C81.3746 103.038 80.7192 103.692 79.9143 103.692H75.6514C74.8417 103.692 74.1911 103.038 74.1911 102.233V97.9676C74.1911 97.1614 74.8417 96.5073 75.6514 96.5073H79.9143C80.7192 96.5073 81.3746 97.1614 81.3746 97.9676V102.233Z" fill="#F7D167"/>
<path d="M90.9776 102.233C90.9776 103.038 90.3222 103.692 89.5173 103.692H85.2544C84.4447 103.692 83.7919 103.038 83.7919 102.233V97.9676C83.7919 97.1614 84.4447 96.5073 85.2544 96.5073H89.5173C90.3222 96.5073 90.9776 97.1614 90.9776 97.9676V102.233Z" fill="#F7D167"/>
<path d="M73.6563 116.661C73.6563 117.746 72.996 118.625 72.1814 118.625H63.5282C62.7162 118.625 62.0559 117.745 62.0559 116.661V115.268C62.0559 114.182 62.7162 113.304 63.5282 113.304H72.1814C72.996 113.304 73.6563 114.183 73.6563 115.268V116.661Z" stroke="#191919" stroke-width="0.5" stroke-miterlimit="10"/>
<path d="M75.124 17.4937C75.5659 17.4937 75.924 17.1355 75.924 16.6937C75.924 16.2519 75.5659 15.8937 75.124 15.8937C74.6822 15.8937 74.324 16.2519 74.324 16.6937C74.324 17.1355 74.6822 17.4937 75.124 17.4937Z" fill="#191919"/>
<path d="M77.2638 17.4937C77.7056 17.4937 78.0638 17.1355 78.0638 16.6937C78.0638 16.2519 77.7056 15.8937 77.2638 15.8937C76.822 15.8937 76.4638 16.2519 76.4638 16.6937C76.4638 17.1355 76.822 17.4937 77.2638 17.4937Z" fill="#191919"/>
<path d="M84.9237 18.1065C85.5179 18.1065 85.9995 17.6248 85.9995 17.0306C85.9995 16.4364 85.5179 15.9547 84.9237 15.9547C84.3295 15.9547 83.8478 16.4364 83.8478 17.0306C83.8478 17.6248 84.3295 18.1065 84.9237 18.1065Z" fill="#191919"/>
</svg>
